<svg width="42" height="40" viewBox="0 0 42 40" fill="none" xmlns="http://www.w3.org/2000/svg">
<rect x="2" y="2" width="38" height="36" rx="7" fill="#F7EFED" stroke="#F7EFED" stroke-width="3"/>
<path d="M2 12L40 12" stroke="#264558" stroke-width="3" stroke-linecap="square"/>
<path d="M15.1594 21.526L13.2594 22.115C13.0694 21.9883 12.8794 21.811 12.6894 21.583C12.4994 21.355 12.4044 21.0383 12.4044 20.633C12.4044 19.873 12.8667 19.341 13.7914 19.037L15.9194 18.315H16.6224C17.167 18.315 17.5977 18.4733 17.9144 18.79C18.231 19.1067 18.3894 19.5373 18.3894 20.082V29.981C18.25 30.0063 18.041 30.038 17.7624 30.076C17.4964 30.1267 17.224 30.152 16.9454 30.152C16.6667 30.152 16.4134 30.133 16.1854 30.095C15.97 30.057 15.7864 29.981 15.6344 29.867C15.4824 29.753 15.362 29.601 15.2734 29.411C15.1974 29.2083 15.1594 28.9487 15.1594 28.632V21.526ZM24.4379 18.163C25.1599 18.163 25.7996 18.258 26.3569 18.448C26.9142 18.6253 27.3892 18.8723 27.7819 19.189C28.1746 19.5057 28.4722 19.8793 28.6749 20.31C28.8776 20.7407 28.9789 21.203 28.9789 21.697C28.9789 23.027 28.2252 24.2937 26.7179 25.497L24.2289 27.492H28.7889C28.8649 27.6313 28.9346 27.8087 28.9979 28.024C29.0739 28.2393 29.1119 28.4737 29.1119 28.727C29.1119 29.183 29.0106 29.5123 28.8079 29.715C28.6052 29.905 28.3392 30 28.0099 30H21.4169C21.1382 29.81 20.9166 29.5693 20.7519 29.278C20.5999 28.974 20.5239 28.6193 20.5239 28.214C20.5239 27.7833 20.6126 27.4223 20.7899 27.131C20.9672 26.827 21.1636 26.5863 21.3789 26.409L24.0009 24.167C24.3302 23.8883 24.6026 23.6413 24.8179 23.426C25.0332 23.198 25.2042 22.9953 25.3309 22.818C25.4702 22.6407 25.5652 22.476 25.6159 22.324C25.6792 22.172 25.7109 22.0263 25.7109 21.887C25.7109 21.5323 25.5526 21.2537 25.2359 21.051C24.9319 20.8483 24.5519 20.747 24.0959 20.747C23.5892 20.747 23.1332 20.8293 22.7279 20.994C22.3352 21.146 22.0059 21.3107 21.7399 21.488C21.5246 21.336 21.3472 21.146 21.2079 20.918C21.0686 20.69 20.9989 20.424 20.9989 20.12C20.9989 19.4613 21.3092 18.9737 21.9299 18.657C22.5506 18.3277 23.3866 18.163 24.4379 18.163Z" fill="#264558"/>
<path d="M15.1594 21.526H15.4094V21.1868L15.0853 21.2872L15.1594 21.526ZM13.2594 22.115L13.1207 22.323L13.2197 22.389L13.3334 22.3538L13.2594 22.115ZM12.6894 21.583L12.4973 21.743L12.6894 21.583ZM13.7914 19.037L13.8694 19.2745L13.8717 19.2737L13.7914 19.037ZM15.9194 18.315V18.065H15.8781L15.839 18.0783L15.9194 18.315ZM17.9144 18.79L18.0911 18.6132L18.0911 18.6132L17.9144 18.79ZM18.3894 29.981L18.4341 30.227L18.6394 30.1896V29.981H18.3894ZM17.7624 30.076L17.7285 29.8279L17.7156 29.8304L17.7624 30.076ZM16.1854 30.095L16.1419 30.3412L16.1443 30.3416L16.1854 30.095ZM15.6344 29.867L15.4844 30.067L15.6344 29.867ZM15.2734 29.411L15.0393 29.4988L15.0427 29.5079L15.0468 29.5167L15.2734 29.411ZM15.0853 21.2872L13.1853 21.8762L13.3334 22.3538L15.2334 21.7648L15.0853 21.2872ZM13.398 21.907C13.233 21.797 13.0604 21.6377 12.8814 21.423L12.4973 21.743C12.6984 21.9843 12.9057 22.1797 13.1207 22.323L13.398 21.907ZM12.8814 21.423C12.7406 21.2539 12.6544 21.0012 12.6544 20.633H12.1544C12.1544 21.0755 12.2582 21.4561 12.4973 21.743L12.8814 21.423ZM12.6544 20.633C12.6544 20.3082 12.7514 20.0448 12.9398 19.828C13.1322 19.6066 13.4343 19.4176 13.8694 19.2745L13.7133 18.7995C13.2237 18.9604 12.8323 19.1894 12.5624 19.5C12.2885 19.8152 12.1544 20.1978 12.1544 20.633H12.6544ZM13.8717 19.2737L15.9997 18.5517L15.839 18.0783L13.711 18.8003L13.8717 19.2737ZM15.9194 18.565H16.6224V18.065H15.9194V18.565ZM16.6224 18.565C17.116 18.565 17.4776 18.7068 17.7376 18.9668L18.0911 18.6132C17.7178 18.2399 17.218 18.065 16.6224 18.065V18.565ZM17.7376 18.9668C17.9976 19.2268 18.1394 19.5884 18.1394 20.082H18.6394C18.6394 19.4863 18.4645 18.9866 18.0911 18.6132L17.7376 18.9668ZM18.1394 20.082V29.981H18.6394V20.082H18.1394ZM18.3446 29.735C18.2109 29.7593 18.0064 29.7904 17.7286 29.8283L17.7961 30.3237C18.0756 30.2856 18.2891 30.2533 18.4341 30.227L18.3446 29.735ZM17.7156 29.8304C17.4654 29.8781 17.2088 29.902 16.9454 29.902V30.402C17.2393 30.402 17.5273 30.3753 17.8091 30.3216L17.7156 29.8304ZM16.9454 29.902C16.6778 29.902 16.4384 29.8837 16.2265 29.8484L16.1443 30.3416C16.3883 30.3823 16.6556 30.402 16.9454 30.402V29.902ZM16.2288 29.8488C16.0463 29.8166 15.9005 29.7541 15.7844 29.667L15.4844 30.067C15.6722 30.2079 15.8938 30.2974 16.1419 30.3412L16.2288 29.8488ZM15.7844 29.667C15.6685 29.5801 15.573 29.462 15.4999 29.3053L15.0468 29.5167C15.151 29.74 15.2962 29.9259 15.4844 30.067L15.7844 29.667ZM15.5074 29.3232C15.4456 29.1584 15.4094 28.9313 15.4094 28.632H14.9094C14.9094 28.966 14.9491 29.2583 15.0393 29.4988L15.5074 29.3232ZM15.4094 28.632V21.526H14.9094V28.632H15.4094ZM26.3569 18.448L26.2762 18.6847L26.2811 18.6862L26.3569 18.448ZM27.7819 19.189L27.6249 19.3836L27.7819 19.189ZM28.6749 20.31L28.9011 20.2035V20.2035L28.6749 20.31ZM26.7179 25.497L26.5619 25.3016L26.5615 25.3019L26.7179 25.497ZM24.2289 27.492L24.0725 27.2969L23.5173 27.742H24.2289V27.492ZM28.7889 27.492L29.0084 27.3723L28.9373 27.242H28.7889V27.492ZM28.9979 28.024L28.7577 28.0946L28.7621 28.1072L28.9979 28.024ZM28.8079 29.715L28.979 29.8975L28.9847 29.8918L28.8079 29.715ZM21.4169 30L21.2761 30.2066L21.3398 30.25H21.4169V30ZM20.7519 29.278L20.528 29.3899L20.5342 29.401L20.7519 29.278ZM20.7899 27.131L21.0035 27.261L21.0058 27.257L20.7899 27.131ZM21.3789 26.409L21.5378 26.602L21.5414 26.599L21.3789 26.409ZM24.0009 24.167L23.8394 23.9762L23.8384 23.977L24.0009 24.167ZM24.8179 23.426L24.9947 23.6028L24.9996 23.5977L24.8179 23.426ZM25.3309 22.818L25.1341 22.6634L25.1275 22.6727L25.3309 22.818ZM25.6159 22.324L25.3851 22.2278L25.3816 22.2363L25.3787 22.2449L25.6159 22.324ZM25.2359 21.051L25.0972 21.259L25.1011 21.2616L25.2359 21.051ZM22.7279 20.994L22.8181 21.2272L22.822 21.2256L22.7279 20.994ZM21.7399 21.488L21.5957 21.6922L21.7358 21.7912L21.8786 21.696L21.7399 21.488ZM21.9299 18.657L22.0435 18.8797L22.0471 18.8778L21.9299 18.657ZM24.4379 18.413C25.1384 18.413 25.75 18.5052 26.2762 18.6846L26.4376 18.2114C25.8491 18.0108 25.1813 17.913 24.4379 17.913V18.413ZM26.2811 18.6862C26.8135 18.8556 27.2599 19.0892 27.6249 19.3836L27.9388 18.9944C27.5185 18.6554 27.0149 18.395 26.4327 18.2098L26.2811 18.6862ZM27.6249 19.3836C27.99 19.678 28.2631 20.0221 28.4487 20.4164L28.9011 20.2035C28.6813 19.7366 28.3592 19.3334 27.9388 18.9944L27.6249 19.3836ZM28.4487 20.4164C28.6351 20.8125 28.7289 21.2384 28.7289 21.697H29.2289C29.2289 21.1676 29.12 20.6688 28.9011 20.2035L28.4487 20.4164ZM28.7289 21.697C28.7289 22.9214 28.0376 24.1235 26.5619 25.3016L26.8739 25.6924C28.4128 24.4638 29.2289 23.1326 29.2289 21.697H28.7289ZM26.5615 25.3019L24.0725 27.2969L24.3852 27.6871L26.8742 25.6921L26.5615 25.3019ZM24.2289 27.742H28.7889V27.242H24.2289V27.742ZM28.5694 27.6117C28.6342 27.7305 28.6978 27.8899 28.758 28.0945L29.2377 27.9535C29.1713 27.7275 29.0956 27.5322 29.0084 27.3723L28.5694 27.6117ZM28.7621 28.1072C28.8277 28.2931 28.8619 28.4989 28.8619 28.727H29.3619C29.3619 28.4484 29.32 28.1856 29.2336 27.9408L28.7621 28.1072ZM28.8619 28.727C28.8619 29.1545 28.7656 29.4037 28.6311 29.5382L28.9847 29.8918C29.2555 29.621 29.3619 29.2115 29.3619 28.727H28.8619ZM28.6369 29.5326C28.489 29.6713 28.2882 29.75 28.0099 29.75V30.25C28.3902 30.25 28.7215 30.1387 28.9789 29.8974L28.6369 29.5326ZM28.0099 29.75H21.4169V30.25H28.0099V29.75ZM21.5577 29.7934C21.3105 29.6249 21.1152 29.4127 20.9695 29.155L20.5342 29.401C20.7179 29.726 20.966 29.9951 21.2761 30.2066L21.5577 29.7934ZM20.9755 29.1662C20.8439 28.903 20.7739 28.5879 20.7739 28.214H20.2739C20.2739 28.6507 20.3559 29.045 20.5283 29.3898L20.9755 29.1662ZM20.7739 28.214C20.7739 27.8173 20.8555 27.5041 21.0034 27.261L20.5763 27.001C20.3696 27.3406 20.2739 27.7494 20.2739 28.214H20.7739ZM21.0058 27.257C21.172 26.9721 21.3504 26.7563 21.5378 26.602L21.22 26.216C20.9767 26.4163 20.7624 26.6819 20.5739 27.005L21.0058 27.257ZM21.5414 26.599L24.1634 24.357L23.8384 23.977L21.2164 26.219L21.5414 26.599ZM24.1624 24.3578C24.495 24.0764 24.7729 23.8246 24.9947 23.6028L24.6411 23.2492C24.4322 23.4581 24.1654 23.7003 23.8394 23.9762L24.1624 24.3578ZM24.9996 23.5977C25.2197 23.3646 25.3989 23.153 25.5343 22.9633L25.1275 22.6727C25.0096 22.8377 24.8467 23.0314 24.6361 23.2543L24.9996 23.5977ZM25.5275 22.9725C25.6779 22.781 25.7904 22.591 25.8531 22.4031L25.3787 22.2449C25.34 22.361 25.2625 22.5003 25.1343 22.6635L25.5275 22.9725ZM25.8467 22.4202C25.9204 22.2431 25.9609 22.0648 25.9609 21.887H25.4609C25.4609 21.9879 25.438 22.1009 25.3851 22.2278L25.8467 22.4202ZM25.9609 21.887C25.9609 21.4411 25.7539 21.0857 25.3707 20.8404L25.1011 21.2616C25.3512 21.4216 25.4609 21.6236 25.4609 21.887H25.9609ZM25.3746 20.843C25.0204 20.6068 24.589 20.497 24.0959 20.497V20.997C24.5148 20.997 24.8434 21.0898 25.0972 21.259L25.3746 20.843ZM24.0959 20.497C23.562 20.497 23.0733 20.5838 22.6338 20.7624L22.822 21.2256C23.1931 21.0749 23.6164 20.997 24.0959 20.997V20.497ZM22.6376 20.7609C22.233 20.9175 21.8863 21.0899 21.6012 21.28L21.8786 21.696C22.1255 21.5314 22.4375 21.3745 22.8181 21.2271L22.6376 20.7609ZM21.8841 21.2838C21.697 21.1517 21.543 20.987 21.4212 20.7876L20.9946 21.0484C21.1514 21.305 21.3521 21.5203 21.5957 21.6922L21.8841 21.2838ZM21.4212 20.7876C21.309 20.6041 21.2489 20.3845 21.2489 20.12H20.7489C20.7489 20.4635 20.8281 20.7759 20.9946 21.0484L21.4212 20.7876ZM21.2489 20.12C21.2489 19.8314 21.3163 19.5928 21.4426 19.3945C21.5693 19.1953 21.7647 19.0219 22.0435 18.8797L21.8163 18.4343C21.4744 18.6088 21.2043 18.8375 21.0207 19.126C20.8366 19.4154 20.7489 19.7499 20.7489 20.12H21.2489ZM22.0471 18.8778C22.6181 18.5748 23.4087 18.413 24.4379 18.413V17.913C23.3644 17.913 22.483 18.0805 21.8127 18.4362L22.0471 18.8778Z" fill="#264558"/>
</svg>
