<svg width="42" height="40" viewBox="0 0 42 40" fill="none" xmlns="http://www.w3.org/2000/svg">
<rect x="2" y="2" width="38" height="36" rx="7" stroke="#F7EFED" stroke-width="3.5"/>
<path d="M4 12H38" stroke="#F7EFED" stroke-width="3.5" stroke-linecap="round"/>
<path d="M15.1594 21.526L13.2594 22.115C13.0694 21.9883 12.8794 21.811 12.6894 21.583C12.4994 21.355 12.4044 21.0383 12.4044 20.633C12.4044 19.873 12.8667 19.341 13.7914 19.037L15.9194 18.315H16.6224C17.167 18.315 17.5977 18.4733 17.9144 18.79C18.231 19.1067 18.3894 19.5373 18.3894 20.082V29.981C18.25 30.0063 18.041 30.038 17.7624 30.076C17.4964 30.1267 17.224 30.152 16.9454 30.152C16.6667 30.152 16.4134 30.133 16.1854 30.095C15.97 30.057 15.7864 29.981 15.6344 29.867C15.4824 29.753 15.362 29.601 15.2734 29.411C15.1974 29.2083 15.1594 28.9487 15.1594 28.632V21.526ZM24.4379 18.163C25.1599 18.163 25.7996 18.258 26.3569 18.448C26.9142 18.6253 27.3892 18.8723 27.7819 19.189C28.1746 19.5057 28.4722 19.8793 28.6749 20.31C28.8776 20.7407 28.9789 21.203 28.9789 21.697C28.9789 23.027 28.2252 24.2937 26.7179 25.497L24.2289 27.492H28.7889C28.8649 27.6313 28.9346 27.8087 28.9979 28.024C29.0739 28.2393 29.1119 28.4737 29.1119 28.727C29.1119 29.183 29.0106 29.5123 28.8079 29.715C28.6052 29.905 28.3392 30 28.0099 30H21.4169C21.1382 29.81 20.9166 29.5693 20.7519 29.278C20.5999 28.974 20.5239 28.6193 20.5239 28.214C20.5239 27.7833 20.6126 27.4223 20.7899 27.131C20.9672 26.827 21.1636 26.5863 21.3789 26.409L24.0009 24.167C24.3302 23.8883 24.6026 23.6413 24.8179 23.426C25.0332 23.198 25.2042 22.9953 25.3309 22.818C25.4702 22.6407 25.5652 22.476 25.6159 22.324C25.6792 22.172 25.7109 22.0263 25.7109 21.887C25.7109 21.5323 25.5526 21.2537 25.2359 21.051C24.9319 20.8483 24.5519 20.747 24.0959 20.747C23.5892 20.747 23.1332 20.8293 22.7279 20.994C22.3352 21.146 22.0059 21.3107 21.7399 21.488C21.5246 21.336 21.3472 21.146 21.2079 20.918C21.0686 20.69 20.9989 20.424 20.9989 20.12C20.9989 19.4613 21.3092 18.9737 21.9299 18.657C22.5506 18.3277 23.3866 18.163 24.4379 18.163Z" fill="#F7EFED"/>
<path d="M15.1594 21.526H15.2594V21.3903L15.1297 21.4305L15.1594 21.526ZM13.2594 22.115L13.2039 22.1982L13.2435 22.2246L13.289 22.2105L13.2594 22.115ZM12.6894 21.583L12.6125 21.647L12.6894 21.583ZM13.7914 19.037L13.8226 19.132L13.8235 19.1317L13.7914 19.037ZM15.9194 18.315V18.215H15.9029L15.8872 18.2203L15.9194 18.315ZM17.9144 18.79L17.9851 18.7193V18.7193L17.9144 18.79ZM18.3894 29.981L18.4072 30.0794L18.4894 30.0645V29.981H18.3894ZM17.7624 30.076L17.7488 29.9768L17.7436 29.9778L17.7624 30.076ZM16.1854 30.095L16.168 30.1935L16.1689 30.1936L16.1854 30.095ZM15.6344 29.867L15.5744 29.947L15.6344 29.867ZM15.2734 29.411L15.1794 29.4462L15.1827 29.4533L15.2734 29.411ZM15.1297 21.4305L13.2297 22.0195L13.289 22.2105L15.189 21.6215L15.1297 21.4305ZM13.3148 22.0318C13.1348 21.9118 12.9518 21.7417 12.7662 21.519L12.6125 21.647C12.807 21.8803 13.0039 22.0649 13.2039 22.1982L13.3148 22.0318ZM12.7662 21.519C12.5958 21.3146 12.5044 21.0235 12.5044 20.633H12.3044C12.3044 21.0532 12.4029 21.3954 12.6125 21.647L12.7662 21.519ZM12.5044 20.633C12.5044 20.2751 12.6125 19.9759 12.8266 19.7296C13.0422 19.4814 13.3711 19.2804 13.8226 19.132L13.7601 18.942C13.2869 19.0976 12.9223 19.3146 12.6756 19.5984C12.4274 19.8841 12.3044 20.2309 12.3044 20.633H12.5044ZM13.8235 19.1317L15.9515 18.4097L15.8872 18.2203L13.7592 18.9423L13.8235 19.1317ZM15.9194 18.415H16.6224V18.215H15.9194V18.415ZM16.6224 18.415C17.1466 18.415 17.5497 18.5667 17.8436 18.8607L17.9851 18.7193C17.6457 18.3799 17.1874 18.215 16.6224 18.215V18.415ZM17.8436 18.8607C18.1376 19.1547 18.2894 19.5577 18.2894 20.082H18.4894C18.4894 19.5169 18.3244 19.0586 17.9851 18.7193L17.8436 18.8607ZM18.2894 20.082V29.981H18.4894V20.082H18.2894ZM18.3715 29.8826C18.2344 29.9075 18.0272 29.939 17.7488 29.9769L17.7759 30.1751C18.0549 30.137 18.2657 30.1051 18.4072 30.0794L18.3715 29.8826ZM17.7436 29.9778C17.484 30.0272 17.2179 30.052 16.9454 30.052V30.252C17.2301 30.252 17.5087 30.2261 17.7811 30.1742L17.7436 29.9778ZM16.9454 30.052C16.6711 30.052 16.4234 30.0333 16.2018 29.9964L16.1689 30.1936C16.4033 30.2327 16.6623 30.252 16.9454 30.252V30.052ZM16.2027 29.9965C16.0005 29.9608 15.832 29.8903 15.6944 29.787L15.5744 29.947C15.7407 30.0717 15.9395 30.1532 16.168 30.1935L16.2027 29.9965ZM15.6944 29.787C15.5568 29.6839 15.4464 29.5454 15.364 29.3687L15.1827 29.4533C15.2776 29.6566 15.4079 29.8221 15.5744 29.947L15.6944 29.787ZM15.367 29.3759C15.2967 29.1884 15.2594 28.9417 15.2594 28.632H15.0594C15.0594 28.9556 15.098 29.2283 15.1797 29.4461L15.367 29.3759ZM15.2594 28.632V21.526H15.0594V28.632H15.2594ZM26.3569 18.448L26.3246 18.5427L26.3266 18.5433L26.3569 18.448ZM27.7819 19.189L27.7191 19.2668L27.7819 19.189ZM28.6749 20.31L28.7654 20.2674L28.6749 20.31ZM26.7179 25.497L26.6555 25.4188L26.6553 25.419L26.7179 25.497ZM24.2289 27.492L24.1663 27.414L23.9442 27.592H24.2289V27.492ZM28.7889 27.492L28.8767 27.4441L28.8483 27.392H28.7889V27.492ZM28.9979 28.024L28.9018 28.0523L28.9036 28.0573L28.9979 28.024ZM28.8079 29.715L28.8763 29.788L28.8786 29.7857L28.8079 29.715ZM21.4169 30L21.3606 30.0826L21.386 30.1H21.4169V30ZM20.7519 29.278L20.6623 29.3228L20.6648 29.3272L20.7519 29.278ZM20.7899 27.131L20.8753 27.183L20.8763 27.1814L20.7899 27.131ZM21.3789 26.409L21.4425 26.4862L21.4439 26.485L21.3789 26.409ZM24.0009 24.167L23.9363 24.0907L23.9359 24.091L24.0009 24.167ZM24.8179 23.426L24.8886 23.4967L24.8906 23.4947L24.8179 23.426ZM25.3309 22.818L25.2522 22.7562L25.2495 22.7599L25.3309 22.818ZM25.6159 22.324L25.5233 22.2854L25.521 22.2924L25.6159 22.324ZM25.2359 21.051L25.1804 21.1342L25.182 21.1352L25.2359 21.051ZM22.7279 20.994L22.764 21.0873L22.7655 21.0866L22.7279 20.994ZM21.7399 21.488L21.6822 21.5697L21.7383 21.6093L21.7954 21.5712L21.7399 21.488ZM21.9299 18.657L21.9753 18.7461L21.9768 18.7453L21.9299 18.657ZM24.4379 18.263C25.1513 18.263 25.7797 18.3569 26.3246 18.5427L26.3892 18.3533C25.8194 18.1591 25.1685 18.063 24.4379 18.063V18.263ZM26.3266 18.5433C26.8739 18.7175 27.3375 18.9591 27.7191 19.2668L27.8447 19.1112C27.4409 18.7856 26.9545 18.5332 26.3872 18.3527L26.3266 18.5433ZM27.7191 19.2668C28.1007 19.5746 28.3886 19.9364 28.5844 20.3526L28.7654 20.2674C28.5559 19.8222 28.2484 19.4367 27.8447 19.1112L27.7191 19.2668ZM28.5844 20.3526C28.7806 20.7694 28.8789 21.2171 28.8789 21.697H29.0789C29.0789 21.1889 28.9745 20.7119 28.7654 20.2674L28.5844 20.3526ZM28.8789 21.697C28.8789 22.9847 28.1502 24.2256 26.6555 25.4188L26.7803 25.5752C28.3003 24.3617 29.0789 23.0693 29.0789 21.697H28.8789ZM26.6553 25.419L24.1663 27.414L24.2914 27.57L26.7804 25.575L26.6553 25.419ZM24.2289 27.592H28.7889V27.392H24.2289V27.592ZM28.7011 27.5399C28.7726 27.671 28.8399 27.8411 28.902 28.0522L29.0938 27.9958C29.0292 27.7762 28.9572 27.5917 28.8767 27.4441L28.7011 27.5399ZM28.9036 28.0573C28.9754 28.2608 29.0119 28.4838 29.0119 28.727H29.2119C29.2119 28.4636 29.1723 28.2178 29.0922 27.9907L28.9036 28.0573ZM29.0119 28.727C29.0119 29.1716 28.9126 29.4689 28.7372 29.6443L28.8786 29.7857C29.1085 29.5558 29.2119 29.1944 29.2119 28.727H29.0119ZM28.7395 29.642C28.5587 29.8115 28.3188 29.9 28.0099 29.9V30.1C28.3596 30.1 28.6517 29.9985 28.8763 29.788L28.7395 29.642ZM28.0099 29.9H21.4169V30.1H28.0099V29.9ZM21.4732 29.9174C21.2071 29.7359 20.996 29.5067 20.8389 29.2288L20.6648 29.3272C20.8371 29.632 21.0693 29.8841 21.3606 30.0826L21.4732 29.9174ZM20.8413 29.2333C20.6975 28.9456 20.6239 28.6068 20.6239 28.214H20.4239C20.4239 28.6319 20.5023 29.0024 20.6624 29.3227L20.8413 29.2333ZM20.6239 28.214C20.6239 27.7969 20.7097 27.455 20.8753 27.183L20.7045 27.079C20.5154 27.3896 20.4239 27.7698 20.4239 28.214H20.6239ZM20.8763 27.1814C21.0491 26.885 21.2383 26.6543 21.4425 26.4862L21.3153 26.3318C21.0888 26.5183 20.8853 26.769 20.7035 27.0806L20.8763 27.1814ZM21.4439 26.485L24.0659 24.243L23.9359 24.091L21.3139 26.333L21.4439 26.485ZM24.0655 24.2433C24.3961 23.9636 24.6707 23.7146 24.8886 23.4967L24.7472 23.3553C24.5344 23.568 24.2643 23.8131 23.9363 24.0907L24.0655 24.2433ZM24.8906 23.4947C25.1078 23.2647 25.2821 23.0584 25.4123 22.8761L25.2495 22.7599C25.1264 22.9323 24.9586 23.1313 24.7452 23.3573L24.8906 23.4947ZM25.4095 22.8798C25.5533 22.6968 25.6553 22.522 25.7108 22.3556L25.521 22.2924C25.4751 22.43 25.3871 22.5845 25.2523 22.7562L25.4095 22.8798ZM25.7082 22.3625C25.7757 22.2005 25.8109 22.0417 25.8109 21.887H25.6109C25.6109 22.011 25.5827 22.1435 25.5236 22.2855L25.7082 22.3625ZM25.8109 21.887C25.8109 21.4958 25.6331 21.1865 25.2898 20.9668L25.182 21.1352C25.472 21.3208 25.6109 21.5688 25.6109 21.887H25.8109ZM25.2914 20.9678C24.9673 20.7517 24.5667 20.647 24.0959 20.647V20.847C24.5371 20.847 24.8965 20.9449 25.1804 21.1342L25.2914 20.9678ZM24.0959 20.647C23.5783 20.647 23.1093 20.7311 22.6902 20.9014L22.7655 21.0866C23.1572 20.9275 23.6001 20.847 24.0959 20.847V20.647ZM22.6918 20.9007C22.2943 21.0546 21.958 21.2224 21.6844 21.4048L21.7954 21.5712C22.0537 21.399 22.3761 21.2374 22.764 21.0873L22.6918 20.9007ZM21.7976 21.4063C21.5935 21.2623 21.4255 21.0824 21.2932 20.8659L21.1226 20.9701C21.2689 21.2096 21.4556 21.4097 21.6822 21.5697L21.7976 21.4063ZM21.2932 20.8659C21.1647 20.6556 21.0989 20.4082 21.0989 20.12H20.8989C20.8989 20.4398 20.9724 20.7244 21.1226 20.9701L21.2932 20.8659ZM21.0989 20.12C21.0989 19.807 21.1724 19.5396 21.316 19.3139C21.4598 19.088 21.6776 18.898 21.9753 18.7461L21.8844 18.5679C21.5615 18.7327 21.3138 18.9448 21.1473 19.2066C20.9805 19.4686 20.8989 19.7744 20.8989 20.12H21.0989ZM21.9768 18.7453C22.5776 18.4265 23.3954 18.263 24.4379 18.263V18.063C23.3777 18.063 22.5235 18.2288 21.883 18.5687L21.9768 18.7453Z" fill="#F7EFED"/>
</svg>
