<svg width="17" height="20" viewBox="0 0 17 20" fill="none" xmlns="http://www.w3.org/2000/svg">
<path d="M8.18182 15.2381C8.72431 15.2381 9.24458 15.0374 9.62817 14.6802C10.0118 14.323 10.2273 13.8385 10.2273 13.3333C10.2273 12.8282 10.0118 12.3437 9.62817 11.9865C9.24458 11.6293 8.72431 11.4286 8.18182 11.4286C7.63933 11.4286 7.11906 11.6293 6.73546 11.9865C6.35187 12.3437 6.13636 12.8282 6.13636 13.3333C6.13636 13.8385 6.35187 14.323 6.73546 14.6802C7.11906 15.0374 7.63933 15.2381 8.18182 15.2381ZM14.3182 6.66667C14.8607 6.66667 15.3809 6.86735 15.7645 7.22456C16.1481 7.58177 16.3636 8.06625 16.3636 8.57143V18.0952C16.3636 18.6004 16.1481 19.0849 15.7645 19.4421C15.3809 19.7993 14.8607 20 14.3182 20H2.04545C1.50297 20 0.982697 19.7993 0.5991 19.4421C0.215503 19.0849 0 18.6004 0 18.0952V8.57143C0 8.06625 0.215503 7.58177 0.5991 7.22456C0.982697 6.86735 1.50297 6.66667 2.04545 6.66667H3.06818V4.7619C3.06818 3.49897 3.60694 2.28776 4.56593 1.39473C5.52492 0.501699 6.8256 0 8.18182 0C8.85335 0 9.51831 0.12317 10.1387 0.362478C10.7591 0.601787 11.3229 0.952546 11.7977 1.39473C12.2726 1.83691 12.6492 2.36186 12.9062 2.9396C13.1632 3.51734 13.2955 4.13656 13.2955 4.7619V6.66667H14.3182ZM8.18182 1.90476C7.36809 1.90476 6.58768 2.20578 6.01229 2.7416C5.43689 3.27742 5.11364 4.00414 5.11364 4.7619V6.66667H11.25V4.7619C11.25 4.00414 10.9267 3.27742 10.3514 2.7416C9.77596 2.20578 8.99555 1.90476 8.18182 1.90476Z" fill="#102538" fill-opacity="0.8"/>
</svg>
