<svg width="52" height="52" viewBox="0 0 52 52" fill="none" xmlns="http://www.w3.org/2000/svg">
<circle cx="26" cy="26" r="24.5" stroke="#30695D" stroke-width="3"/>
<rect x="12" y="14" width="28" height="6" rx="3" fill="#30695D"/>
<rect x="12" y="13" width="28" height="26.5263" rx="5" stroke="#30695D" stroke-width="3"/>
<path d="M13.4736 20.3684H38.5263" stroke="#30695D" stroke-width="3" stroke-linecap="round"/>
<path d="M22.0038 27.2547L20.7038 27.6577C20.5738 27.5711 20.4438 27.4497 20.3138 27.2937C20.1838 27.1377 20.1188 26.9211 20.1188 26.6437C20.1188 26.1237 20.4351 25.7597 21.0678 25.5517L22.5238 25.0577H23.0048C23.3774 25.0577 23.6721 25.1661 23.8888 25.3827C24.1054 25.5994 24.2138 25.8941 24.2138 26.2667V33.0397C24.1184 33.0571 23.9754 33.0787 23.7848 33.1047C23.6028 33.1394 23.4164 33.1567 23.2258 33.1567C23.0351 33.1567 22.8618 33.1437 22.7058 33.1177C22.5584 33.0917 22.4328 33.0397 22.3288 32.9617C22.2248 32.8837 22.1424 32.7797 22.0818 32.6497C22.0298 32.5111 22.0038 32.3334 22.0038 32.1167V27.2547ZM28.3523 24.9537C28.8463 24.9537 29.2839 25.0187 29.6653 25.1487C30.0466 25.2701 30.3716 25.4391 30.6403 25.6557C30.9089 25.8724 31.1126 26.1281 31.2513 26.4227C31.3899 26.7174 31.4593 27.0337 31.4593 27.3717C31.4593 28.2817 30.9436 29.1484 29.9123 29.9717L28.2093 31.3367H31.3293C31.3813 31.4321 31.4289 31.5534 31.4723 31.7007C31.5243 31.8481 31.5503 32.0084 31.5503 32.1817C31.5503 32.4937 31.4809 32.7191 31.3423 32.8577C31.2036 32.9877 31.0216 33.0527 30.7963 33.0527H26.2853C26.0946 32.9227 25.9429 32.7581 25.8303 32.5587C25.7263 32.3507 25.6743 32.1081 25.6743 31.8307C25.6743 31.5361 25.7349 31.2891 25.8563 31.0897C25.9776 30.8817 26.1119 30.7171 26.2593 30.5957L28.0533 29.0617C28.2786 28.8711 28.4649 28.7021 28.6123 28.5547C28.7596 28.3987 28.8766 28.2601 28.9633 28.1387C29.0586 28.0174 29.1236 27.9047 29.1583 27.8007C29.2016 27.6967 29.2233 27.5971 29.2233 27.5017C29.2233 27.2591 29.1149 27.0684 28.8983 26.9297C28.6903 26.7911 28.4303 26.7217 28.1183 26.7217C27.7716 26.7217 27.4596 26.7781 27.1823 26.8907C26.9136 26.9947 26.6883 27.1074 26.5063 27.2287C26.3589 27.1247 26.2376 26.9947 26.1423 26.8387C26.0469 26.6827 25.9993 26.5007 25.9993 26.2927C25.9993 25.8421 26.2116 25.5084 26.6363 25.2917C27.0609 25.0664 27.6329 24.9537 28.3523 24.9537Z" fill="#30695D"/>
<path d="M22.0038 27.2547H22.1038V27.119L21.9742 27.1592L22.0038 27.2547ZM20.7038 27.6577L20.6483 27.7409L20.6879 27.7673L20.7334 27.7532L20.7038 27.6577ZM20.3138 27.2937L20.237 27.3578L20.3138 27.2937ZM21.0678 25.5517L21.099 25.6467L21.0999 25.6464L21.0678 25.5517ZM22.5238 25.0577V24.9577H22.5073L22.4917 24.963L22.5238 25.0577ZM23.8888 25.3827L23.9595 25.312V25.312L23.8888 25.3827ZM24.2138 33.0397L24.2317 33.1381L24.3138 33.1232V33.0397H24.2138ZM23.7848 33.1047L23.7713 33.0055L23.7661 33.0065L23.7848 33.1047ZM22.7058 33.1177L22.6884 33.2162L22.6893 33.2164L22.7058 33.1177ZM22.3288 32.9617L22.2688 33.0417L22.3288 32.9617ZM22.0818 32.6497L21.9879 32.685L21.9912 32.692L22.0818 32.6497ZM21.9742 27.1592L20.6742 27.5622L20.7334 27.7532L22.0334 27.3503L21.9742 27.1592ZM20.7593 27.5745C20.6392 27.4945 20.5162 27.3804 20.3906 27.2297L20.237 27.3578C20.3714 27.5191 20.5083 27.6476 20.6483 27.7409L20.7593 27.5745ZM20.3906 27.2297C20.2803 27.0973 20.2188 26.9062 20.2188 26.6437H20.0188C20.0188 26.9359 20.0873 27.1782 20.237 27.3578L20.3906 27.2297ZM20.2188 26.6437C20.2188 26.4058 20.2904 26.2087 20.4315 26.0463C20.5742 25.8822 20.7936 25.7472 21.099 25.6467L21.0366 25.4567C20.7093 25.5643 20.4542 25.7153 20.2806 25.9151C20.1053 26.1168 20.0188 26.3617 20.0188 26.6437H20.2188ZM21.0999 25.6464L22.5559 25.1524L22.4917 24.963L21.0357 25.457L21.0999 25.6464ZM22.5238 25.1577H23.0048V24.9577H22.5238V25.1577ZM23.0048 25.1577C23.357 25.1577 23.6241 25.2595 23.8181 25.4534L23.9595 25.312C23.7202 25.0727 23.3979 24.9577 23.0048 24.9577V25.1577ZM23.8181 25.4534C24.0121 25.6474 24.1138 25.9145 24.1138 26.2667H24.3138C24.3138 25.8737 24.1988 25.5514 23.9595 25.312L23.8181 25.4534ZM24.1138 26.2667V33.0397H24.3138V26.2667H24.1138ZM24.1959 32.9413C24.1028 32.9583 23.9616 32.9797 23.7713 33.0057L23.7983 33.2038C23.9893 33.1778 24.1341 33.1559 24.2317 33.1381L24.1959 32.9413ZM23.7661 33.0065C23.5904 33.04 23.4104 33.0567 23.2258 33.0567V33.2567C23.4225 33.2567 23.6151 33.2388 23.8035 33.203L23.7661 33.0065ZM23.2258 33.0567C23.0395 33.0567 22.8718 33.044 22.7222 33.0191L22.6893 33.2164C22.8517 33.2434 23.0307 33.2567 23.2258 33.2567V33.0567ZM22.7232 33.0193C22.5889 32.9956 22.4785 32.949 22.3888 32.8817L22.2688 33.0417C22.3871 33.1305 22.5279 33.1879 22.6884 33.2162L22.7232 33.0193ZM22.3888 32.8817C22.2993 32.8146 22.2269 32.7241 22.1724 32.6074L21.9912 32.692C22.058 32.8353 22.1503 32.9529 22.2688 33.0417L22.3888 32.8817ZM22.1754 32.6146C22.1291 32.4911 22.1038 32.3265 22.1038 32.1167H21.9038C21.9038 32.3403 21.9305 32.531 21.9881 32.6848L22.1754 32.6146ZM22.1038 32.1167V27.2547H21.9038V32.1167H22.1038ZM29.6653 25.1487L29.633 25.2434L29.6349 25.244L29.6653 25.1487ZM30.6403 25.6557L30.5775 25.7336L30.6403 25.6557ZM31.2513 26.4227L31.3417 26.3802V26.3802L31.2513 26.4227ZM29.9123 29.9717L29.8499 29.8936L29.8497 29.8937L29.9123 29.9717ZM28.2093 31.3367L28.1467 31.2587L27.9246 31.4367H28.2093V31.3367ZM31.3293 31.3367L31.417 31.2888L31.3886 31.2367H31.3293V31.3367ZM31.4723 31.7007L31.3762 31.729L31.378 31.734L31.4723 31.7007ZM31.3423 32.8577L31.4107 32.9307L31.413 32.9284L31.3423 32.8577ZM26.2853 33.0527L26.2289 33.1354L26.2544 33.1527H26.2853V33.0527ZM25.8303 32.5587L25.7407 32.6035L25.7432 32.6079L25.8303 32.5587ZM25.8563 31.0897L25.9417 31.1417L25.9426 31.1401L25.8563 31.0897ZM26.2593 30.5957L26.3228 30.6729L26.3242 30.6717L26.2593 30.5957ZM28.0533 29.0617L27.9887 28.9854L27.9883 28.9857L28.0533 29.0617ZM28.6123 28.5547L28.683 28.6255L28.685 28.6234L28.6123 28.5547ZM28.9633 28.1387L28.8845 28.0769L28.8819 28.0806L28.9633 28.1387ZM29.1583 27.8007L29.0657 27.7622L29.0634 27.7691L29.1583 27.8007ZM28.8983 26.9297L28.8428 27.013L28.8443 27.014L28.8983 26.9297ZM27.1823 26.8907L27.2184 26.984L27.2199 26.9834L27.1823 26.8907ZM26.5063 27.2287L26.4486 27.3104L26.5046 27.35L26.5617 27.3119L26.5063 27.2287ZM26.6363 25.2917L26.6817 25.3808L26.6831 25.3801L26.6363 25.2917ZM28.3523 25.0537C28.8377 25.0537 29.2641 25.1176 29.633 25.2434L29.6975 25.0541C29.3038 24.9198 28.8548 24.8537 28.3523 24.8537V25.0537ZM29.6349 25.244C30.0063 25.3622 30.3199 25.5258 30.5775 25.7336L30.703 25.5779C30.4233 25.3523 30.0869 25.1779 29.6956 25.0534L29.6349 25.244ZM30.5775 25.7336C30.8351 25.9413 31.0289 26.1852 31.1608 26.4653L31.3417 26.3802C31.1962 26.071 30.9828 25.8035 30.703 25.5779L30.5775 25.7336ZM31.1608 26.4653C31.2929 26.7462 31.3593 27.0479 31.3593 27.3717H31.5593C31.5593 27.0196 31.4869 26.6886 31.3417 26.3802L31.1608 26.4653ZM31.3593 27.3717C31.3593 28.2395 30.8685 29.0803 29.8499 29.8936L29.9746 30.0499C31.0186 29.2165 31.5593 28.324 31.5593 27.3717H31.3593ZM29.8497 29.8937L28.1467 31.2587L28.2718 31.4148L29.9748 30.0498L29.8497 29.8937ZM28.2093 31.4367H31.3293V31.2367H28.2093V31.4367ZM31.2415 31.3846C31.289 31.4717 31.3342 31.5859 31.3763 31.729L31.5682 31.6725C31.5236 31.5209 31.4735 31.3924 31.417 31.2888L31.2415 31.3846ZM31.378 31.734C31.4258 31.8696 31.4503 32.0185 31.4503 32.1817H31.6503C31.6503 31.9983 31.6227 31.8266 31.5666 31.6675L31.378 31.734ZM31.4503 32.1817C31.4503 32.4823 31.3829 32.6756 31.2715 32.787L31.413 32.9284C31.5789 32.7625 31.6503 32.5051 31.6503 32.1817H31.4503ZM31.2739 32.7848C31.1571 32.8943 31.0012 32.9527 30.7963 32.9527V33.1527C31.042 33.1527 31.2501 33.0812 31.4106 32.9307L31.2739 32.7848ZM30.7963 32.9527H26.2853V33.1527H30.7963V32.9527ZM26.3416 32.9701C26.1635 32.8487 26.0224 32.6954 25.9173 32.5095L25.7432 32.6079C25.8635 32.8207 26.0257 32.9968 26.2289 33.1354L26.3416 32.9701ZM25.9197 32.514C25.8239 32.3223 25.7743 32.0955 25.7743 31.8307H25.5743C25.5743 32.1206 25.6287 32.3791 25.7408 32.6035L25.9197 32.514ZM25.7743 31.8307C25.7743 31.5496 25.8321 31.3218 25.9417 31.1417L25.7708 31.0377C25.6378 31.2564 25.5743 31.5225 25.5743 31.8307H25.7743ZM25.9426 31.1401C26.0595 30.9398 26.1867 30.7851 26.3228 30.6729L26.1957 30.5185C26.0372 30.6491 25.8957 30.8237 25.7699 31.0393L25.9426 31.1401ZM26.3242 30.6717L28.1182 29.1377L27.9883 28.9857L26.1943 30.5197L26.3242 30.6717ZM28.1178 29.1381C28.3445 28.9463 28.5331 28.7754 28.683 28.6254L28.5415 28.484C28.3968 28.6288 28.2127 28.7958 27.9887 28.9854L28.1178 29.1381ZM28.685 28.6234C28.8342 28.4654 28.9544 28.3231 29.0446 28.1969L28.8819 28.0806C28.7987 28.197 28.685 28.3321 28.5395 28.4861L28.685 28.6234ZM29.0419 28.2005C29.1417 28.0735 29.2137 27.9507 29.2531 27.8324L29.0634 27.7691C29.0335 27.8587 28.9755 27.9613 28.8846 28.077L29.0419 28.2005ZM29.2506 27.8392C29.2981 27.7252 29.3233 27.6124 29.3233 27.5017H29.1233C29.1233 27.5817 29.1051 27.6683 29.0659 27.7623L29.2506 27.8392ZM29.3233 27.5017C29.3233 27.2226 29.1955 27.0012 28.9522 26.8455L28.8443 27.014C29.0344 27.1356 29.1233 27.2956 29.1233 27.5017H29.3233ZM28.9537 26.8465C28.7256 26.6945 28.4451 26.6217 28.1183 26.6217V26.8217C28.4154 26.8217 28.6549 26.8877 28.8428 27.0129L28.9537 26.8465ZM28.1183 26.6217C27.7607 26.6217 27.4356 26.6799 27.1446 26.7981L27.2199 26.9834C27.4835 26.8763 27.7825 26.8217 28.1183 26.8217V26.6217ZM27.1462 26.7975C26.8727 26.9033 26.6404 27.0191 26.4508 27.1455L26.5617 27.3119C26.7361 27.1957 26.9545 27.0861 27.2184 26.984L27.1462 26.7975ZM26.5639 27.147C26.4279 27.051 26.3159 26.9311 26.2276 26.7866L26.0569 26.8909C26.1593 27.0583 26.29 27.1985 26.4486 27.3104L26.5639 27.147ZM26.2276 26.7866C26.1431 26.6484 26.0993 26.4849 26.0993 26.2927H25.8993C25.8993 26.5165 25.9507 26.7171 26.0569 26.8909L26.2276 26.7866ZM26.0993 26.2927C26.0993 26.0837 26.1483 25.9068 26.2429 25.7582C26.3377 25.6092 26.482 25.4827 26.6817 25.3808L26.5908 25.2027C26.3658 25.3174 26.1917 25.4661 26.0741 25.6508C25.9564 25.8358 25.8993 26.0511 25.8993 26.2927H26.0993ZM26.6831 25.3801C27.088 25.1653 27.6418 25.0537 28.3523 25.0537V24.8537C27.624 24.8537 27.0339 24.9675 26.5894 25.2034L26.6831 25.3801Z" fill="#30695D"/>
</svg>
