<svg width="55" height="50" viewBox="0 0 55 50" fill="none" xmlns="http://www.w3.org/2000/svg">
<path d="M17 29V35C17 35.7956 17.3161 36.5587 17.8787 37.1213C18.4413 37.6839 19.2044 38 20 38H26M44 38H50C50.7956 38 51.5587 37.6839 52.1213 37.1213C52.6839 36.5587 53 35.7956 53 35V29M53 11V5C53 4.20435 52.6839 3.44129 52.1213 2.87868C51.5587 2.31607 50.7956 2 50 2H44M17 11V5C17 4.20435 17.3161 3.44129 17.8787 2.87868C18.4413 2.31607 19.2044 2 20 2H26" stroke="#F7EFED" stroke-width="4" stroke-linecap="round" stroke-linejoin="round"/>
<rect x="32" y="7" width="6" height="17" rx="3" fill="#F7EFED"/>
<rect x="32" y="26" width="6" height="6" rx="3" fill="#F7EFED"/>
<path d="M33.5 32.5C33.5 41.3366 26.3366 48.5 17.5 48.5C8.66344 48.5 1.5 41.3366 1.5 32.5C1.5 23.6634 8.66344 16.5 17.5 16.5C26.3366 16.5 33.5 23.6634 33.5 32.5Z" fill="#F7EFED" stroke="#264558" stroke-width="3"/>
<path d="M15.0001 26.6666C15.0001 25.2859 16.1194 24.1666 17.5001 24.1666V24.1666C18.8808 24.1666 20.0001 25.2859 20.0001 26.6666V38.3332C20.0001 39.714 18.8808 40.8332 17.5001 40.8332V40.8332C16.1194 40.8332 15.0001 39.714 15.0001 38.3332V26.6666Z" fill="#264558"/>
<path d="M9.16675 32.4999C9.16675 31.1192 10.286 29.9999 11.6667 29.9999H23.3334C24.7141 29.9999 25.8334 31.1192 25.8334 32.4999V32.4999C25.8334 33.8806 24.7141 34.9999 23.3334 34.9999H11.6667C10.286 34.9999 9.16675 33.8806 9.16675 32.4999V32.4999Z" fill="#264558"/>
</svg>
