<svg width="55" height="50" viewBox="0 0 55 50" fill="none" xmlns="http://www.w3.org/2000/svg">
<path d="M17 29V35C17 35.7956 17.3161 36.5587 17.8787 37.1213C18.4413 37.6839 19.2044 38 20 38H26M44 38H50C50.7956 38 51.5587 37.6839 52.1213 37.1213C52.6839 36.5587 53 35.7956 53 35V29M53 11V5C53 4.20435 52.6839 3.44129 52.1213 2.87868C51.5587 2.31607 50.7956 2 50 2H44M17 11V5C17 4.20435 17.3161 3.44129 17.8787 2.87868C18.4413 2.31607 19.2044 2 20 2H26" stroke="#F7EFED" stroke-width="4" stroke-linecap="round" stroke-linejoin="round"/>
<path d="M45.3668 11.8984L45.367 11.8986C46.6267 13.2783 47.25 15.1571 47.25 17.2208C47.25 20.7779 45.4199 23.6275 43.1381 25.8218C40.8637 28.0104 38.0139 29.6732 35.6669 30.8876L35.6669 30.8877C35.4597 30.9948 35.2297 31.0504 34.9965 31.0497C34.7634 31.0491 34.5338 30.9922 34.3274 30.8839L45.3668 11.8984ZM45.3668 11.8984C44.092 10.5051 42.2847 9.75 40.184 9.75C38.3201 9.75 36.3662 10.5807 34.9993 12.2024M45.3668 11.8984L34.9993 12.2024M34.9993 12.2024C33.6238 10.581 31.6635 9.75 29.816 9.75C27.7106 9.75 25.8998 10.5083 24.6281 11.9052C23.3699 13.2849 22.75 15.1637 22.75 17.2208C22.75 20.8016 24.5751 23.6417 26.8574 25.83L26.8575 25.8302C29.1319 28.0075 31.9818 29.6574 34.3272 30.8839C34.3272 30.8838 34.3271 30.8838 34.3271 30.8838L34.9993 12.2024ZM28.8641 23.7346L28.8642 23.7348C30.6399 25.4376 32.8914 26.8227 35.0036 27.9597C37.0991 26.8381 39.3519 25.4408 41.1291 23.7318L28.8641 23.7346ZM28.8641 23.7346C26.9068 21.8609 25.65 19.7266 25.65 17.2208C25.65 15.7344 26.0938 14.6033 26.772 13.8579M28.8641 23.7346L26.772 13.8579M26.772 13.8579C27.4365 13.1282 28.4338 12.65 29.816 12.65C31.2574 12.65 32.9642 13.5905 33.6217 15.5947C33.7166 15.8854 33.901 16.1386 34.1484 16.3182C34.396 16.4978 34.6941 16.5945 35 16.5945C35.3059 16.5945 35.604 16.4978 35.8515 16.3182C36.099 16.1386 36.2834 15.8854 36.3783 15.5948C37.0375 13.5883 38.7256 12.65 40.184 12.65C41.5613 12.65 42.5606 13.1282 43.2251 13.8535C43.9048 14.5989 44.35 15.7299 44.35 17.2208C44.35 19.6991 43.0903 21.8447 41.1291 23.7318L26.772 13.8579Z" fill="#F7EFED" stroke="#F7EFED" stroke-width="0.5"/>
<path d="M33.5 32.5C33.5 41.3366 26.3366 48.5 17.5 48.5C8.66344 48.5 1.5 41.3366 1.5 32.5C1.5 23.6634 8.66344 16.5 17.5 16.5C26.3366 16.5 33.5 23.6634 33.5 32.5Z" fill="#F7EFED" stroke="#264558" stroke-width="3"/>
<path d="M15 26.6665C15 25.2858 16.1193 24.1665 17.5 24.1665C18.8807 24.1665 20 25.2858 20 26.6665V38.3332C20 39.7139 18.8807 40.8332 17.5 40.8332C16.1193 40.8332 15 39.7139 15 38.3332V26.6665Z" fill="#264558"/>
<path d="M9.1665 32.5C9.1665 31.1193 10.2858 30 11.6665 30H23.3332C24.7139 30 25.8332 31.1193 25.8332 32.5C25.8332 33.8807 24.7139 35 23.3332 35H11.6665C10.2858 35 9.1665 33.8807 9.1665 32.5Z" fill="#264558"/>
</svg>
