<svg width="55" height="50" viewBox="0 0 55 50" fill="none" xmlns="http://www.w3.org/2000/svg">
<path d="M17 29V35C17 35.7956 17.3161 36.5587 17.8787 37.1213C18.4413 37.6839 19.2044 38 20 38H26M44 38H50C50.7956 38 51.5587 37.6839 52.1213 37.1213C52.6839 36.5587 53 35.7956 53 35V29M53 11V5C53 4.20435 52.6839 3.44129 52.1213 2.87868C51.5587 2.31607 50.7956 2 50 2H44M17 11V5C17 4.20435 17.3161 3.44129 17.8787 2.87868C18.4413 2.31607 19.2044 2 20 2H26" stroke="#F7EFED" stroke-width="4" stroke-linecap="round" stroke-linejoin="round"/>
<path d="M39.6199 13.1035L39.6183 13.1037C39.125 13.1849 38.562 13.4799 37.9908 13.9409C37.437 14.3879 37.0048 14.8861 36.7789 15.1701C35.8696 16.3134 34.1251 16.3131 33.2162 15.1696C32.9905 14.8857 32.5588 14.3877 32.0052 13.9407C31.4345 13.4798 30.8713 13.1843 30.3769 13.1025L39.6199 13.1035ZM39.6199 13.1035C41.9833 12.7126 43.3536 13.4884 44.1036 14.4323C44.9316 15.4744 45.1979 16.961 44.8535 18.2174L44.8534 18.2177M39.6199 13.1035L44.8534 18.2177M44.8534 18.2177C44.2601 20.3834 42.4341 22.6522 40.2205 24.6748M44.8534 18.2177L40.2205 24.6748M40.2205 24.6748C38.2559 26.4698 36.1939 27.8857 34.9967 28.6527M40.2205 24.6748L34.9967 28.6527M34.9967 28.6527C33.7998 27.8856 31.7384 26.4698 29.7744 24.6749C27.5623 22.6531 25.7375 20.3854 25.1438 18.2205C24.8032 16.9612 25.071 15.4733 25.898 14.4314C26.647 13.4877 28.0144 12.7122 30.3767 13.1025L34.9967 28.6527Z" stroke="#F7EFED" stroke-width="4"/>
<path d="M33.5 32.5C33.5 41.3366 26.3366 48.5 17.5 48.5C8.66344 48.5 1.5 41.3366 1.5 32.5C1.5 23.6634 8.66344 16.5 17.5 16.5C26.3366 16.5 33.5 23.6634 33.5 32.5Z" fill="#F7EFED" stroke="#264558" stroke-width="3"/>
<path d="M15.0001 26.6666C15.0001 25.2859 16.1194 24.1666 17.5001 24.1666V24.1666C18.8808 24.1666 20.0001 25.2859 20.0001 26.6666V38.3332C20.0001 39.714 18.8808 40.8332 17.5001 40.8332V40.8332C16.1194 40.8332 15.0001 39.714 15.0001 38.3332V26.6666Z" fill="#264558"/>
<path d="M9.16675 32.4999C9.16675 31.1192 10.286 29.9999 11.6667 29.9999H23.3334C24.7141 29.9999 25.8334 31.1192 25.8334 32.4999V32.4999C25.8334 33.8806 24.7141 34.9999 23.3334 34.9999H11.6667C10.286 34.9999 9.16675 33.8806 9.16675 32.4999V32.4999Z" fill="#264558"/>
</svg>
