<svg width="50" height="50" viewBox="0 0 50 50" fill="none" xmlns="http://www.w3.org/2000/svg">
<path d="M14.6958 11.9278C14.6288 12.9846 14.7931 14.043 15.1783 15.0373C15.5636 16.0316 16.1617 16.9404 16.9353 17.7072C15.4318 18.1139 14.0858 18.9236 13.0605 20.038C12.0352 21.1524 11.3747 22.5237 11.1591 23.9854C10.6393 27.4931 11.4019 31.0632 13.3212 34.1071L13.8736 34.9857L13.9414 35.0795L16.1762 37.9178C16.6495 38.5193 17.2561 39.0163 17.9537 39.3741C18.6514 39.7319 19.4233 39.9419 20.2157 39.9896C21.0081 40.0372 21.802 39.9213 22.5421 39.6499C23.2822 39.3785 23.9507 38.9582 24.5011 38.4181C24.5655 38.355 24.6427 38.3047 24.7281 38.2704C24.8135 38.2361 24.9054 38.2184 24.9983 38.2184C25.0911 38.2184 25.183 38.2361 25.2684 38.2704C25.3538 38.3047 25.431 38.355 25.4954 38.4181C26.0458 38.9582 26.7143 39.3785 27.4544 39.6499C28.1945 39.9213 28.9884 40.0372 29.7808 39.9896C30.5733 39.9419 31.3452 39.7319 32.0428 39.3741C32.7404 39.0163 33.347 38.5193 33.8204 37.9178L36.0551 35.078L36.1214 34.9842L36.6753 34.1056C38.5956 31.0631 39.3598 27.4941 38.8422 23.9869C38.6894 22.9534 38.3134 21.9606 37.7375 21.0698C37.1616 20.179 36.398 19.4092 35.4941 18.8081C34.5902 18.207 33.5651 17.7874 32.4824 17.5752C31.3996 17.3631 30.2822 17.3629 29.1994 17.5746L26.1993 18.1613H26.1945C26.2419 16.9998 26.4344 15.7489 26.8116 14.6797C27.2693 13.3872 27.9037 12.6098 28.6107 12.3329C28.9006 12.2187 29.1305 12.0006 29.25 11.7265C29.3694 11.4524 29.3685 11.1448 29.2475 10.8713C29.1266 10.5978 28.8954 10.3808 28.6049 10.2681C28.3144 10.1554 27.9884 10.1563 27.6985 10.2704C26.0383 10.9241 25.0945 12.4743 24.5658 13.9724L24.4932 14.1839C24.105 13.475 23.603 12.827 23.005 12.2629C22.1866 11.4896 21.2034 10.8893 20.1205 10.5016C19.0376 10.114 17.8798 9.94784 16.7238 10.0143C16.1962 10.0429 15.6982 10.2533 15.3241 10.6054C14.9499 10.9576 14.7258 11.4271 14.6942 11.9248M19.312 23.5625C18.7644 23.6652 18.2625 24.0286 17.9485 24.721C17.6281 25.4269 17.5145 26.4737 17.8601 27.7797C17.9311 28.0653 17.8802 28.3659 17.7184 28.6164C17.5565 28.8668 17.2967 29.0472 16.995 29.1184C16.6934 29.1896 16.3742 29.1459 16.1064 28.9969C15.8386 28.8478 15.6437 28.6053 15.5638 28.3218C15.1219 26.6509 15.2056 25.0903 15.7721 23.8409C16.345 22.5796 17.4214 21.64 18.848 21.3719C19.0027 21.3375 19.163 21.3328 19.3196 21.3581C19.4762 21.3833 19.6258 21.4381 19.7595 21.5191C19.8932 21.6001 20.0082 21.7057 20.0977 21.8295C20.1873 21.9533 20.2495 22.0929 20.2806 22.2399C20.3118 22.3869 20.3113 22.5383 20.2791 22.6851C20.2469 22.8319 20.1838 22.9711 20.0934 23.0943C20.003 23.2176 19.8872 23.3225 19.753 23.4026C19.6188 23.4828 19.4688 23.5381 19.312 23.5625Z" fill="#30695D"/>
<circle cx="25" cy="25" r="23.25" stroke="#30695D" stroke-width="3.5"/>
</svg>
