<svg width="115" height="115" viewBox="0 0 115 115" fill="none" xmlns="http://www.w3.org/2000/svg">
<path d="M33.8002 27.4339C33.6461 29.8645 34.0239 32.299 34.91 34.5858C35.7961 36.8727 37.1717 38.9629 38.9509 40.7265C35.493 41.662 32.3971 43.5243 30.0389 46.0875C27.6807 48.6506 26.1615 51.8045 25.6657 55.1664C24.4701 63.2341 26.2242 71.4454 30.6386 78.4462L31.909 80.467L32.0651 80.6828L37.205 87.2109C38.2936 88.5945 39.6888 89.7375 41.2934 90.5605C42.8979 91.3834 44.6733 91.8665 46.4959 91.976C48.3184 92.0856 50.1444 91.8189 51.8467 91.1947C53.5489 90.5705 55.0865 89.6038 56.3524 88.3617C56.5004 88.2164 56.678 88.1009 56.8745 88.022C57.0709 87.9431 57.2823 87.9024 57.4958 87.9024C57.7093 87.9024 57.9207 87.9431 58.1172 88.022C58.3136 88.1009 58.4912 88.2164 58.6392 88.3617C59.9051 89.6038 61.4427 90.5705 63.1449 91.1947C64.8472 91.8189 66.6732 92.0856 68.4957 91.976C70.3183 91.8665 72.0937 91.3834 73.6982 90.5605C75.3028 89.7375 76.698 88.5945 77.7866 87.2109L82.9265 80.6794L83.0789 80.4636L84.353 78.4428C88.7696 71.4452 90.5274 63.2365 89.3368 55.1698C88.9853 52.7929 88.1206 50.5093 86.796 48.4605C85.4715 46.4117 83.7153 44.6412 81.6363 43.2587C79.5572 41.8762 77.1996 40.911 74.7093 40.423C72.2189 39.935 69.649 39.9346 67.1584 40.4216L60.2581 41.7711H60.2472C60.3561 39.0996 60.799 36.2226 61.6665 33.7634C62.7191 30.7905 64.1783 29.0026 65.8045 28.3656C66.4712 28.103 67 27.6014 67.2747 26.9709C67.5494 26.3405 67.5474 25.6329 67.2691 25.0039C66.9909 24.3748 66.4593 23.8758 65.7911 23.6167C65.123 23.3575 64.3731 23.3594 63.7065 23.6219C59.8879 25.1255 57.7172 28.6909 56.5012 32.1365L56.3343 32.6229C55.4413 30.9925 54.2867 29.5021 52.9113 28.2046C51.0289 26.4261 48.7676 25.0453 46.277 24.1537C43.7864 23.2621 41.1234 22.88 38.4645 23.0328C37.2511 23.0987 36.1056 23.5825 35.2451 24.3925C34.3847 25.2025 33.8692 26.2823 33.7966 27.4271M44.4175 54.1937C43.1579 54.43 42.0036 55.2657 41.2813 56.8583C40.5444 58.4818 40.2831 60.8896 41.078 63.8933C41.2414 64.5503 41.1244 65.2415 40.7521 65.8176C40.3797 66.3938 39.7821 66.8085 39.0884 66.9723C38.3946 67.1361 37.6604 67.0357 37.0445 66.6928C36.4285 66.35 35.9803 65.7922 35.7966 65.14C34.7803 61.2972 34.9726 57.7077 36.2757 54.8341C37.5934 51.9331 40.0689 49.772 43.3503 49.1554C43.7059 49.0762 44.0748 49.0654 44.435 49.1235C44.7951 49.1817 45.1392 49.3077 45.4467 49.494C45.7541 49.6802 46.0187 49.923 46.2246 50.2078C46.4306 50.4926 46.5736 50.8136 46.6453 51.1517C46.7169 51.4898 46.7157 51.838 46.6417 52.1757C46.5677 52.5133 46.4225 52.8334 46.2146 53.117C46.0067 53.4005 45.7405 53.6417 45.4317 53.826C45.123 54.0104 44.778 54.1377 44.4175 54.1937Z" fill="#354E85"/>
<circle cx="57.5" cy="57.5" r="53.5" stroke="#354E85" stroke-width="8"/>
</svg>
