<svg width="44" height="47" viewBox="0 0 44 47" fill="none" xmlns="http://www.w3.org/2000/svg">
<path d="M5.73999 2.99408C5.63593 4.63534 5.89103 6.27925 6.4894 7.82347C7.08777 9.36769 8.01661 10.7792 9.2181 11.97C6.88309 12.6017 4.79255 13.8593 3.20014 15.5901C1.60773 17.3209 0.581894 19.4506 0.247089 21.7207C-0.560262 27.1686 0.624179 32.7134 3.60509 37.4408L4.46297 38.8053L4.56837 38.951L8.03912 43.3592C8.77425 44.2935 9.71635 45.0653 10.7998 45.621C11.8833 46.1767 13.0822 46.5029 14.3129 46.5769C15.5436 46.6509 16.7766 46.4708 17.9261 46.0493C19.0755 45.6278 20.1138 44.975 20.9686 44.1363C21.0686 44.0382 21.1885 43.9602 21.3212 43.9069C21.4538 43.8536 21.5965 43.8261 21.7407 43.8261C21.8849 43.8261 22.0276 43.8536 22.1603 43.9069C22.293 43.9602 22.4129 44.0382 22.5128 44.1363C23.3676 44.975 24.4059 45.6278 25.5554 46.0493C26.7049 46.4708 27.9379 46.6509 29.1686 46.5769C30.3993 46.5029 31.5981 46.1767 32.6816 45.621C33.7651 45.0653 34.7072 44.2935 35.4424 43.3592L38.9131 38.9487L39.0161 38.803L39.8764 37.4384C42.8587 32.7132 44.0457 27.1702 43.2417 21.723C43.0044 20.118 42.4205 18.576 41.5261 17.1925C40.6316 15.809 39.4458 14.6135 38.0419 13.6799C36.638 12.7464 35.046 12.0947 33.3643 11.7651C31.6827 11.4356 29.9473 11.4353 28.2656 11.7642L23.606 12.6754H23.5987C23.6722 10.8714 23.9712 8.92869 24.557 7.26811C25.2679 5.26061 26.2532 4.05334 27.3513 3.62316C27.8015 3.44589 28.1586 3.10714 28.3441 2.68143C28.5295 2.25572 28.5282 1.77793 28.3403 1.35315C28.1524 0.928382 27.7934 0.591428 27.3423 0.416417C26.8911 0.241406 26.3847 0.242675 25.9346 0.419944C23.356 1.43526 21.8903 3.84287 21.0691 6.16954L20.9564 6.49795C20.3534 5.39703 19.5738 4.39065 18.645 3.51446C17.3739 2.31352 15.8469 1.38113 14.1651 0.779068C12.4833 0.177002 10.6851 -0.0810027 8.88965 0.0221447C8.07028 0.0666461 7.29672 0.393362 6.7157 0.940317C6.13468 1.48727 5.78662 2.21642 5.73754 2.98945M12.9094 21.0639C12.0589 21.2235 11.2795 21.7878 10.7917 22.8632C10.2941 23.9595 10.1176 25.5854 10.6544 27.6137C10.7648 28.0573 10.6857 28.5241 10.4343 28.9131C10.1829 29.3022 9.77937 29.5822 9.3109 29.6928C8.84243 29.8034 8.34666 29.7356 7.93073 29.5041C7.5148 29.2726 7.21212 28.8959 7.08809 28.4556C6.40179 25.8606 6.5317 23.4368 7.41164 21.4964C8.30139 19.5375 9.97303 18.0781 12.1888 17.6618C12.429 17.6083 12.6781 17.601 12.9213 17.6402C13.1645 17.6795 13.3968 17.7646 13.6044 17.8904C13.812 18.0162 13.9907 18.1801 14.1297 18.3724C14.2688 18.5647 14.3654 18.7815 14.4138 19.0098C14.4622 19.2381 14.4614 19.4732 14.4114 19.7012C14.3614 19.9292 14.2633 20.1454 14.123 20.3368C13.9826 20.5283 13.8028 20.6911 13.5943 20.8157C13.3858 20.9402 13.1529 21.0261 12.9094 21.0639Z" fill="#F7EFED"/>
</svg>
