<svg width="34" height="34" viewBox="0 0 34 34" fill="none" xmlns="http://www.w3.org/2000/svg">
<path d="M5.0426 4.9688C8.22375 1.78733 12.5383 -3.35222e-08 17.0371 0C21.536 3.35222e-08 25.8505 1.78733 29.0317 4.9688C32.2128 8.15027 34 12.4653 34 16.9645C34 21.4638 32.2128 25.7788 29.0317 28.9603C26.9303 31.0864 24.3046 32.6195 21.4204 33.4045C18.5361 34.1895 15.4956 34.1985 12.6068 33.4306C9.71791 32.6627 7.08317 31.1451 4.96926 29.0315C2.85534 26.9179 1.33729 24.2833 0.568764 21.3943C-0.198825 18.505 -0.189317 15.4641 0.596326 12.5797C1.38197 9.69521 2.91584 7.06961 5.0426 4.9688ZM7.29012 26.7104C8.57667 28.0008 10.1063 29.0232 11.7905 29.7186C13.4747 30.4139 15.2801 30.7684 17.1021 30.7614C18.9242 30.7544 20.7268 30.3862 22.4056 29.678C24.0845 28.9698 25.6062 27.9357 26.8829 26.6355C28.1595 25.3353 29.1657 23.7949 29.8432 22.1033C30.5207 20.4117 30.8561 18.6025 30.83 16.7804C30.8039 14.9584 30.4167 13.1596 29.691 11.4881C28.9652 9.81663 27.9152 8.30568 26.6018 7.04266C23.9851 4.52637 20.4815 3.14416 16.8517 3.19624C13.222 3.24832 9.75943 4.73048 7.216 7.3208C4.67257 9.91113 3.25371 13.4004 3.26758 17.0308C3.28146 20.6613 4.72696 24.1396 7.29012 26.7104ZM12.858 10.5394L17.035 14.7168L21.212 10.5394C21.4064 10.33 21.6536 10.177 21.9277 10.0964C22.2017 10.0158 22.4924 10.0106 22.7692 10.0814C23.0459 10.1521 23.2985 10.2962 23.5002 10.4985C23.7019 10.7008 23.8454 10.9537 23.9154 11.2307C23.986 11.5071 23.981 11.7975 23.9008 12.0714C23.8206 12.3452 23.6682 12.5925 23.4595 12.7871L19.2825 16.9645L23.4595 21.1419C23.6689 21.3363 23.8219 21.5836 23.9025 21.8577C23.9831 22.1317 23.9883 22.4225 23.9175 22.6993C23.8468 22.976 23.7027 23.2286 23.5004 23.4304C23.2982 23.6321 23.0453 23.7756 22.7683 23.8456C22.4919 23.9162 22.2015 23.9112 21.9277 23.831C21.6539 23.7507 21.4067 23.5983 21.212 23.3897L17.035 19.2123L12.858 23.3897C12.6637 23.599 12.4164 23.7521 12.1424 23.8327C11.8683 23.9133 11.5776 23.9185 11.3009 23.8477C11.0241 23.777 10.7716 23.6328 10.5699 23.4306C10.3681 23.2283 10.2247 22.9754 10.1546 22.6984C10.084 22.4219 10.0891 22.1315 10.1693 21.8577C10.2495 21.5838 10.4019 21.3366 10.6105 21.1419L14.7875 16.9645L10.6105 12.7871C10.3293 12.4857 10.1761 12.0868 10.1832 11.6746C10.1903 11.2624 10.3572 10.8691 10.6487 10.5776C10.9402 10.286 11.3335 10.1191 11.7456 10.112C12.1578 10.1049 12.5566 10.2581 12.858 10.5394Z" fill="#2A4E70"/>
</svg>
