<svg width="50" height="50" viewBox="0 0 50 50" fill="none" xmlns="http://www.w3.org/2000/svg">
<circle cx="25" cy="25" r="23.25" stroke="#30695D" stroke-width="3.5"/>
<path fill-rule="evenodd" clip-rule="evenodd" d="M31.7249 10.8874C31.5908 10.62 31.3881 10.3958 31.1391 10.2392C30.89 10.0827 30.6041 9.99998 30.3126 10H25.0472C24.6254 10 24.2208 10.1731 23.9226 10.4813C23.6243 10.7895 23.4567 11.2076 23.4567 11.6434C23.4567 12.0793 23.6243 12.4973 23.9226 12.8055C24.2208 13.1137 24.6254 13.2868 25.0472 13.2868H27.2377L23.4207 18.8525C23.2518 19.0985 23.1517 19.3877 23.1312 19.6886C23.1108 19.9894 23.1709 20.2902 23.3049 20.5581C23.4389 20.826 23.6417 21.0507 23.891 21.2074C24.1404 21.3642 24.4266 21.4471 24.7185 21.4469H30.6413C31.0631 21.4469 31.4676 21.2738 31.7659 20.9656C32.0642 20.6574 32.2317 20.2394 32.2317 19.8035C32.2317 19.3677 32.0642 18.9497 31.7659 18.6414C31.4676 18.3333 31.0631 18.1601 30.6413 18.1601H27.7933L31.6104 12.5944C31.7793 12.3482 31.8794 12.0586 31.8996 11.7575C31.9198 11.4564 31.8593 11.1554 31.7249 10.8874ZM20.9778 18.4756C20.8435 18.2079 20.6405 17.9834 20.391 17.8269C20.1416 17.6703 19.8552 17.5878 19.5633 17.5882H13.9417C13.5198 17.5882 13.1153 17.7613 12.817 18.0695C12.5188 18.3777 12.3512 18.7958 12.3512 19.2316C12.3512 19.6675 12.5188 20.0855 12.817 20.3937C13.1153 20.7019 13.5198 20.875 13.9417 20.875H16.4885L12.2918 26.9973C12.1234 27.2434 12.0238 27.5326 12.0038 27.8333C11.9837 28.134 12.0441 28.4346 12.1783 28.7022C12.3125 28.9698 12.5154 29.1941 12.7646 29.3506C13.0139 29.5071 13.3001 29.5898 13.5918 29.5895H19.9175C20.3393 29.5895 20.7438 29.4164 21.0421 29.1082C21.3403 28.8 21.5079 28.382 21.5079 27.9461C21.5079 27.5102 21.3403 27.0922 21.0421 26.784C20.7438 26.4758 20.3393 26.3027 19.9175 26.3027H16.6645L20.8632 20.1804C21.0318 19.9344 21.1316 19.6453 21.1518 19.3446C21.172 19.0439 21.1118 18.7433 20.9778 18.4756ZM33.9303 24.8389C34.2222 24.8388 34.5084 24.9217 34.7577 25.0784C35.0071 25.2352 35.2098 25.4598 35.3439 25.7277C35.4779 25.9956 35.538 26.2965 35.5175 26.5973C35.4971 26.8982 35.397 27.1874 35.2281 27.4333L28.8663 36.7132H34.4096C34.8314 36.7132 35.2359 36.8863 35.5342 37.1945C35.8324 37.5027 36 37.9207 36 38.3566C36 38.7924 35.8324 39.2105 35.5342 39.5187C35.2359 39.8269 34.8314 40 34.4096 40H25.7915C25.4996 40.0001 25.2134 39.9173 24.9641 39.7605C24.7147 39.6037 24.512 39.3791 24.3779 39.1112C24.2439 38.8433 24.1838 38.5425 24.2043 38.2416C24.2247 37.9408 24.3248 37.6516 24.4937 37.4056L30.8555 28.1258H26.2707C25.8489 28.1258 25.4444 27.9526 25.1461 27.6444C24.8479 27.3362 24.6803 26.9182 24.6803 26.4824C24.6803 26.0465 24.8479 25.6285 25.1461 25.3203C25.4444 25.0121 25.8489 24.8389 26.2707 24.8389H33.9303Z" fill="#30695D"/>
</svg>
