<svg width="38" height="47" viewBox="0 0 38 47" fill="none" xmlns="http://www.w3.org/2000/svg">
<path fill-rule="evenodd" clip-rule="evenodd" d="M30.6348 1.51257C30.4265 1.09718 30.1118 0.748924 29.725 0.505851C29.3381 0.262778 28.8941 0.134239 28.4413 0.134277H20.2636C19.6085 0.134277 18.9802 0.403189 18.517 0.881856C18.0537 1.36052 17.7935 2.00973 17.7935 2.68667C17.7935 3.36361 18.0537 4.01282 18.517 4.49149C18.9802 4.97015 19.6085 5.23906 20.2636 5.23906H23.6658L17.7375 13.8832C17.4752 14.2652 17.3197 14.7144 17.288 15.1816C17.2562 15.6488 17.3496 16.1161 17.5577 16.5322C17.7658 16.9482 18.0808 17.2971 18.468 17.5406C18.8552 17.7841 19.2998 17.9128 19.7531 17.9125H28.9518C29.6069 17.9125 30.2352 17.6436 30.6985 17.165C31.1617 16.6863 31.4219 16.0371 31.4219 15.3602C31.4219 14.6832 31.1617 14.034 30.6985 13.5553C30.2352 13.0767 29.6069 12.8078 28.9518 12.8078H24.5287L30.4569 4.16366C30.7193 3.78125 30.8747 3.33156 30.9061 2.86392C30.9375 2.39627 30.8436 1.92873 30.6348 1.51257ZM13.9434 13.2978C13.7349 12.8819 13.4196 12.5333 13.0321 12.2902C12.6447 12.0471 12.1999 11.9189 11.7466 11.9195H3.01558C2.36047 11.9195 1.73218 12.1884 1.26895 12.6671C0.805708 13.1458 0.545465 13.795 0.545465 14.4719C0.545465 15.1489 0.805708 15.7981 1.26895 16.2767C1.73218 16.7554 2.36047 17.0243 3.01558 17.0243H6.97107L0.453247 26.5328C0.191703 26.915 0.036919 27.3642 0.00582584 27.8312C-0.0252673 28.2982 0.0685278 28.7651 0.276952 29.1807C0.485376 29.5963 0.800401 29.9447 1.18757 30.1878C1.57474 30.4308 2.01914 30.5592 2.47216 30.5588H12.2966C12.9518 30.5588 13.58 30.2899 14.0433 29.8112C14.5065 29.3326 14.7668 28.6833 14.7668 28.0064C14.7668 27.3295 14.5065 26.6803 14.0433 26.2016C13.58 25.7229 12.9518 25.454 12.2966 25.454H7.24442L13.7655 15.9455C14.0273 15.5635 14.1823 15.1144 14.2137 14.6474C14.2451 14.1805 14.1515 13.7136 13.9434 13.2978ZM34.06 23.1807C34.5133 23.1805 34.9579 23.3092 35.3451 23.5526C35.7324 23.7961 36.0473 24.145 36.2554 24.5611C36.4636 24.9772 36.5569 25.4444 36.5252 25.9116C36.4935 26.3789 36.3379 26.8281 36.0756 27.2101L26.1952 41.6226H34.8044C35.4595 41.6226 36.0878 41.8915 36.551 42.3702C37.0142 42.8488 37.2745 43.498 37.2745 44.175C37.2745 44.8519 37.0142 45.5011 36.551 45.9798C36.0878 46.4585 35.4595 46.7274 34.8044 46.7274H21.4196C20.9663 46.7276 20.5217 46.5989 20.1345 46.3554C19.7473 46.1119 19.4324 45.7631 19.2242 45.347C19.0161 44.9309 18.9228 44.4637 18.9545 43.9964C18.9862 43.5292 19.1417 43.08 19.404 42.698L29.2845 28.2855H22.1639C21.5088 28.2855 20.8805 28.0166 20.4173 27.5379C19.9541 27.0592 19.6938 26.41 19.6938 25.7331C19.6938 25.0561 19.9541 24.4069 20.4173 23.9283C20.8805 23.4496 21.5088 23.1807 22.1639 23.1807H34.06Z" fill="#F7EFED"/>
</svg>
