<svg width="115" height="115" viewBox="0 0 115 115" fill="none" xmlns="http://www.w3.org/2000/svg">
<circle cx="57.5" cy="57.5" r="53.5" stroke="#354E85" stroke-width="8"/>
<path fill-rule="evenodd" clip-rule="evenodd" d="M72.9674 25.0411C72.6589 24.426 72.1928 23.9102 71.62 23.5503C71.0471 23.1903 70.3895 22.9999 69.719 23H57.6086C56.6384 23 55.708 23.3982 55.022 24.1071C54.336 24.816 53.9506 25.7774 53.9506 26.7799C53.9506 27.7823 54.336 28.7438 55.022 29.4526C55.708 30.1615 56.6384 30.5597 57.6086 30.5597H62.6469L53.8677 43.3608C53.4792 43.9265 53.2489 44.5918 53.2019 45.2837C53.155 45.9756 53.2932 46.6675 53.6014 47.2837C53.9097 47.8999 54.376 48.4166 54.9495 48.7771C55.5229 49.1377 56.1813 49.3283 56.8526 49.328H70.475C71.4452 49.328 72.3756 48.9297 73.0616 48.2209C73.7477 47.512 74.133 46.5506 74.133 45.5481C74.133 44.5456 73.7477 43.5842 73.0616 42.8753C72.3756 42.1665 71.4452 41.7682 70.475 41.7682H63.9248L72.704 28.9671C73.0926 28.4008 73.3227 27.7349 73.3691 27.0423C73.4156 26.3498 73.2766 25.6574 72.9674 25.0411ZM48.2489 42.494C47.9401 41.8781 47.4733 41.3618 46.8995 41.0018C46.3257 40.6418 45.6671 40.4519 44.9958 40.4529H32.0659C31.0957 40.4529 30.1653 40.8511 29.4793 41.5599C28.7933 42.2688 28.4079 43.2302 28.4079 44.2327C28.4079 45.2352 28.7933 46.1966 29.4793 46.9055C30.1653 47.6143 31.0957 48.0126 32.0659 48.0126H37.9236L28.2713 62.0938C27.884 62.6598 27.6548 63.325 27.6087 64.0166C27.5627 64.7082 27.7016 65.3995 28.0102 66.015C28.3189 66.6306 28.7854 67.1465 29.3588 67.5064C29.9321 67.8664 30.5902 68.0565 31.2611 68.0559H45.8103C46.7804 68.0559 47.7109 67.6576 48.3969 66.9488C49.0829 66.2399 49.4683 65.2785 49.4683 64.276C49.4683 63.2735 49.0829 62.3121 48.3969 61.6033C47.7109 60.8944 46.7804 60.4962 45.8103 60.4962H38.3284L47.9856 46.4149C48.3732 45.8492 48.6028 45.1842 48.6492 44.4926C48.6957 43.8011 48.5572 43.1097 48.2489 42.494ZM78.0398 57.1296C78.7111 57.1293 79.3695 57.3198 79.9429 57.6804C80.5164 58.041 80.9827 58.5576 81.291 59.1738C81.5992 59.79 81.7374 60.4819 81.6904 61.1738C81.6435 61.8658 81.4132 62.531 81.0247 63.0967L66.3927 84.4403H79.1421C80.1123 84.4403 81.0427 84.8385 81.7287 85.5474C82.4147 86.2562 82.8001 87.2177 82.8001 88.2201C82.8001 89.2226 82.4147 90.1841 81.7287 90.8929C81.0427 91.6018 80.1123 92 79.1421 92H59.3205C58.6493 92.0003 57.9909 91.8097 57.4174 91.4492C56.844 91.0886 56.3776 90.572 56.0694 89.9558C55.7611 89.3396 55.6229 88.6477 55.6699 87.9557C55.7168 87.2638 55.9472 86.5986 56.3356 86.0329L70.9676 64.6893H60.4228C59.4527 64.6893 58.5222 64.2911 57.8362 63.5822C57.1502 62.8733 56.7648 61.9119 56.7648 60.9094C56.7648 59.9069 57.1502 58.9455 57.8362 58.2367C58.5222 57.5278 59.4527 57.1296 60.4228 57.1296H78.0398Z" fill="#354E85"/>
</svg>
