<svg width="50" height="50" viewBox="0 0 50 50" fill="none" xmlns="http://www.w3.org/2000/svg">
<circle cx="25" cy="25" r="23.25" stroke="#30695D" stroke-width="3.5"/>
<path d="M37.6924 30.812L37.6924 18.7198L38.763 18.7198C39.2769 18.7198 39.7157 18.9041 40.0793 19.2727C40.4437 19.6422 40.626 20.0839 40.626 20.5978L40.6008 28.9868C40.6016 29.5016 40.424 29.937 40.068 30.293C39.7119 30.6491 39.2769 30.8271 38.763 30.8271L37.6924 30.812ZM10.8187 30.851C10.3367 30.851 9.9101 30.6814 9.53894 30.3421C9.16778 30.0029 8.98136 29.5923 8.97968 29.1102L8.95575 20.6218C8.95575 20.1079 9.13797 19.6687 9.50241 19.3042C9.86602 18.9406 10.3048 18.7588 10.8187 18.7588L12.0682 18.7588L12.0682 30.851L10.8187 30.851ZM15.0799 34.9485C14.6727 34.9477 14.3334 34.8116 14.0622 34.5404C13.7909 34.2692 13.6553 33.9303 13.6553 33.5239L13.6553 16.0859C13.6553 15.6778 13.7909 15.3382 14.0622 15.0669C14.3334 14.7957 14.6722 14.6601 15.0787 14.6601L18.8222 14.6525C19.2295 14.6533 19.3156 14.7894 19.5894 15.0631C19.8631 15.3369 20 15.677 20 16.0834L20 20.8032H30L30 16C29.9992 15.5927 30 15.5 30 15C30 14.6163 30.5139 14.6601 30.922 14.6601L34.6869 14.6286C35.0951 14.6286 35.4398 14.7692 35.7211 15.0505C36.0024 15.3319 36.1435 15.6761 36.1443 16.0834L36.1443 33.5189C36.1443 33.927 36.0036 34.2717 35.7223 34.553C35.441 34.8343 35.0963 34.975 34.6882 34.975L30.922 34.9447C30.5147 34.9439 30.6781 34.7877 30.4068 34.5165C30.1356 34.2453 30 33.9064 30 33.5L30 28.8004L20 28.8004L20 33.5189C20 33.9253 19.8631 34.2654 19.5894 34.5391C19.3156 34.8129 19.2295 34.9514 18.8222 34.9523L15.0799 34.9485Z" fill="#30695D"/>
</svg>
