<svg width="115" height="115" viewBox="0 0 115 115" fill="none" xmlns="http://www.w3.org/2000/svg">
<circle cx="57.5" cy="57.5" r="53.5" stroke="#354E85" stroke-width="8"/>
<path d="M86.6923 70.8677L86.6923 43.0557L89.1548 43.0557C90.3369 43.0557 91.346 43.4796 92.1823 44.3275C93.0205 45.1773 93.4396 46.1932 93.4396 47.3752L93.3817 66.6698C93.3836 67.8538 92.9751 68.8552 92.1562 69.6741C91.3373 70.493 90.3369 70.9025 89.1548 70.9025L86.6923 70.8677ZM24.8829 70.9575C23.7743 70.9575 22.7931 70.5674 21.9395 69.7871C21.0858 69.0068 20.657 68.0624 20.6532 66.9538L20.5981 47.4303C20.5981 46.2483 21.0172 45.2381 21.8555 44.3999C22.6918 43.5636 23.7009 43.1455 24.8829 43.1455L27.7568 43.1455L27.7568 70.9575L24.8829 70.9575ZM34.6838 80.3818C33.747 80.3798 32.9668 80.0669 32.3429 79.4431C31.7191 78.8193 31.4072 78.04 31.4072 77.1052L31.4072 36.9978C31.4072 36.0592 31.7191 35.2779 32.3429 34.6541C32.9668 34.0303 33.7461 33.7183 34.6809 33.7183L43.291 33.701C44.2277 33.7029 44.4258 34.0158 45.0554 34.6454C45.6851 35.2751 45.9999 36.0573 45.9999 36.9921L45.9999 47.8475L68.9999 47.8475L68.9999 36.8002C68.998 35.8635 68.9999 35.6502 68.9999 34.5002C68.9999 33.6176 70.1818 33.7183 71.1205 33.7183L79.7799 33.6459C80.7185 33.6459 81.5114 33.9694 82.1584 34.6164C82.8054 35.2635 83.1299 36.0553 83.1318 36.9921L83.1318 77.0936C83.1318 78.0322 82.8083 78.8251 82.1613 79.4721C81.5143 80.1191 80.7214 80.4426 79.7828 80.4426L71.1205 80.3731C70.1837 80.3711 70.5595 80.012 69.9357 79.3881C69.3118 78.7643 68.9999 77.985 68.9999 77.0502L68.9999 66.2411L45.9999 66.2411L45.9999 77.0936C45.9999 78.0284 45.6851 78.8106 45.0555 79.4402C44.4258 80.0698 44.2278 80.3885 43.291 80.3905L34.6838 80.3818Z" fill="#354E85"/>
</svg>
