<svg width="50" height="33" viewBox="0 0 50 33" fill="none" xmlns="http://www.w3.org/2000/svg">
<path d="M45.3273 25.776L45.3273 6.99559L46.9901 6.9956C47.7883 6.9956 48.4698 7.28186 49.0345 7.85441C49.6005 8.42825 49.8835 9.11426 49.8835 9.91243L49.8444 22.9414C49.8457 23.7408 49.5698 24.4171 49.0169 24.97C48.4639 25.523 47.7883 25.7995 46.9901 25.7995L45.3273 25.776ZM3.58974 25.8367C2.84113 25.8367 2.1786 25.5732 1.60214 25.0463C1.02569 24.5194 0.736156 23.8817 0.733549 23.1331L0.696384 9.9496C0.696382 9.15143 0.979392 8.46934 1.54541 7.90332C2.11013 7.3386 2.79157 7.05624 3.58974 7.05624L5.53039 7.05624L5.53038 25.8367L3.58974 25.8367ZM10.2079 32.2005C9.57535 32.1992 9.04846 31.9879 8.6272 31.5667C8.20595 31.1454 7.99532 30.6192 7.99532 29.9879L7.99532 2.90498C7.99532 2.27114 8.20595 1.7436 8.6272 1.32234C9.04846 0.901085 9.5747 0.690457 10.2059 0.690457L16.02 0.67872C16.6526 0.680024 16.7863 0.891307 17.2115 1.31647C17.6367 1.74164 17.8492 2.26984 17.8492 2.90107L17.8492 10.2313H33.3803L33.3803 2.77151C33.379 2.13898 33.3803 1.99496 33.3803 1.21841C33.3803 0.622406 34.1784 0.690457 34.8122 0.690458L40.6596 0.64155C41.2934 0.64155 41.8288 0.860003 42.2657 1.29691C42.7026 1.73381 42.9217 2.26853 42.923 2.90107L42.923 29.9801C42.923 30.6139 42.7046 31.1493 42.2676 31.5862C41.8307 32.0231 41.2954 32.2416 40.6615 32.2416L34.8122 32.1946C34.1797 32.1933 34.4334 31.9508 34.0122 31.5295C33.5909 31.1083 33.3803 30.582 33.3803 29.9508V22.6518H17.8492L17.8492 29.9801C17.8492 30.6113 17.6367 31.1395 17.2115 31.5647C16.7863 31.9899 16.6526 32.2051 16.02 32.2064L10.2079 32.2005Z" fill="#F7EFED"/>
</svg>
