<svg width="68" height="69" viewBox="0 0 68 69" fill="none" xmlns="http://www.w3.org/2000/svg">
<path d="M29.9745 19.6446C30.3746 20.1079 30.9271 20.4163 31.5485 20.5231C32.7458 20.7254 33.198 22.2027 32.3308 23.0485C31.9884 23.3825 31.5031 23.5355 31.0303 23.4556L30.8195 23.42C29.5743 23.2059 28.4671 22.5879 27.6652 21.6594C26.8633 20.7308 26.4102 19.5421 26.3744 18.2727C26.3588 17.6223 26.1227 17.0141 25.7037 16.5458C25.2847 16.0775 24.7072 15.7762 24.0639 15.6902L24.0057 15.678C22.8404 15.4326 22.4194 13.9946 23.2699 13.165C23.5991 12.844 24.0589 12.6923 24.5156 12.7542L24.7 12.7791C25.9893 12.9515 27.1466 13.5554 27.9863 14.4939C28.826 15.4324 29.2993 16.6511 29.3305 17.9547C29.3483 18.5881 29.5744 19.1812 29.9745 19.6446Z" fill="#F7EFED"/>
<path d="M34.9154 14.8255C35.3156 15.2889 35.868 15.5972 36.4894 15.704C37.6867 15.9063 38.1389 17.3837 37.2717 18.2295C36.9293 18.5635 36.444 18.7164 35.9713 18.6365L35.7604 18.6009C34.5152 18.3868 33.408 17.7689 32.6061 16.8403C31.8042 15.9117 31.3511 14.723 31.3153 13.4537C31.2998 12.8032 31.0636 12.1951 30.6446 11.7268C30.2256 11.2585 29.6481 10.9571 29.0048 10.8711C27.8146 10.6205 27.3846 9.15179 28.2533 8.30453L28.3231 8.23647C28.5814 7.98449 28.9423 7.86547 29.3008 7.91401L29.6409 7.96007C30.9303 8.13245 32.0876 8.73631 32.9272 9.67481C33.7669 10.6133 34.2402 11.8321 34.2714 13.1356C34.2892 13.769 34.5153 14.3622 34.9154 14.8255Z" fill="#F7EFED"/>
<path d="M43.5736 18.6569L15.4749 51.421C14.8538 52.1452 14.6106 53.1418 14.7988 54.1918C14.9869 55.2418 15.5909 56.259 16.478 57.0198L23.1673 62.7566C24.0544 63.5174 25.1518 63.9593 26.2182 63.9852C27.2846 64.0111 28.2325 63.6188 28.8536 62.8947L56.9523 30.1305C57.5733 29.4064 57.8165 28.4097 57.6284 27.3597C57.4403 26.3098 56.8362 25.2925 55.9492 24.5318L49.2598 18.7949C48.3728 18.0342 47.2753 17.5923 46.209 17.5664C45.1426 17.5405 44.1946 17.9327 43.5736 18.6569ZM52.8485 26.6111C53.2678 26.9707 53.3161 27.602 52.9566 28.0212L35.5261 48.3458C35.1666 48.765 34.5353 48.8134 34.116 48.4539L28.9449 44.019C28.5256 43.6595 28.4772 43.0282 28.8368 42.609L46.2673 22.2844C46.6268 21.8651 47.2581 21.8167 47.6773 22.1763L52.8485 26.6111Z" fill="#F7EFED"/>
</svg>
