<svg width="50" height="50" viewBox="0 0 50 50" fill="none" xmlns="http://www.w3.org/2000/svg">
<circle cx="25" cy="25" r="23.25" stroke="#30695D" stroke-width="3.5"/>
<path d="M28.7295 14.7204C28.8822 15.0837 29.1591 15.3826 29.5183 15.5717C30.2111 15.934 30.1939 16.9286 29.4944 17.2738C29.2183 17.4101 28.8907 17.4072 28.6171 17.2641L28.4951 17.2003C27.7753 16.8213 27.2204 16.2224 26.9143 15.4942C26.6082 14.7659 26.5674 13.9478 26.7983 13.1635C26.9183 12.7621 26.8947 12.3427 26.7315 11.9725C26.5682 11.6024 26.2746 11.3029 25.8978 11.1221L25.8646 11.103C25.1999 10.7207 25.2285 9.75639 25.9145 9.41781C26.1799 9.28678 26.4917 9.28548 26.759 9.4143L26.8669 9.46631C27.6221 9.82859 28.2105 10.4288 28.5377 11.1706C28.865 11.9125 28.9121 12.753 28.6716 13.5574C28.5564 13.9487 28.5767 14.357 28.7295 14.7204Z" fill="#30695D"/>
<path d="M32.7144 12.7535C32.8672 13.1168 33.1441 13.4157 33.5033 13.6048C34.1961 13.9671 34.1788 14.9617 33.4794 15.3069C33.2032 15.4432 32.8756 15.4403 32.6021 15.2972L32.4801 15.2334C31.7602 14.8544 31.2054 14.2555 30.8992 13.5273C30.5931 12.799 30.5524 11.9809 30.7832 11.1966C30.9032 10.7952 30.8797 10.3758 30.7164 10.0056C30.5531 9.63547 30.2595 9.33598 29.8827 9.15521C29.2039 8.76476 29.233 7.77982 29.9337 7.43401L29.9899 7.40623C30.1983 7.30339 30.443 7.30237 30.6528 7.40348L30.8519 7.49941C31.607 7.86169 32.1954 8.46189 32.5227 9.20374C32.8499 9.94559 32.8971 10.7861 32.6566 11.5905C32.5414 11.9818 32.5617 12.3901 32.7144 12.7535Z" fill="#30695D"/>
<path d="M34.9791 16.0681L11.2499 30.5347C10.7254 30.8544 10.3781 31.4163 10.2842 32.0966C10.1903 32.777 10.3576 33.5201 10.7493 34.1626L13.7029 39.0073C14.0945 39.6498 14.6785 40.1389 15.3263 40.3671C15.9741 40.5953 16.6326 40.5438 17.1571 40.2241L40.8863 25.7575C41.4108 25.4378 41.7581 24.8759 41.852 24.1956C41.9459 23.5152 41.7786 22.7721 41.3869 22.1296L38.4334 17.2849C38.0417 16.6425 37.4577 16.1533 36.8099 15.9251C36.1621 15.6969 35.5036 15.7484 34.9791 16.0681ZM38.889 22.4813C39.1765 22.9529 39.0272 23.5682 38.5557 23.8557L24.4439 32.459C23.9723 32.7465 23.357 32.5973 23.0695 32.1257L21.157 28.9887C20.8695 28.5171 21.0187 27.9018 21.4903 27.6143L35.6021 19.011C36.0736 18.7235 36.689 18.8727 36.9765 19.3443L38.889 22.4813Z" fill="#30695D"/>
</svg>
