<svg width="115" height="115" viewBox="0 0 115 115" fill="none" xmlns="http://www.w3.org/2000/svg">
<path d="M60.8479 32.1196C61.1992 32.9554 61.836 33.6427 62.6622 34.0776C64.2557 34.9109 64.216 37.1986 62.6073 37.9926C61.9721 38.3061 61.2187 38.2993 60.5894 37.9703L60.3089 37.8235C58.6532 36.9518 57.377 35.5744 56.6729 33.8994C55.9688 32.2244 55.8752 30.3428 56.4061 28.5388C56.6821 27.6156 56.628 26.651 56.2524 25.7996C55.8768 24.9482 55.2016 24.2594 54.3349 23.8436L54.2586 23.7998C52.73 22.9205 52.7956 20.7025 54.3733 19.9237C54.9839 19.6224 55.7009 19.6194 56.3158 19.9157L56.564 20.0353C58.3009 20.8686 59.6542 22.249 60.4068 23.9553C61.1595 25.6615 61.268 27.5947 60.7148 29.4447C60.4499 30.3449 60.4965 31.2838 60.8479 32.1196Z" fill="#354E85"/>
<path d="M70.0133 27.5957C70.3646 28.4315 71.0014 29.1188 71.8276 29.5538C73.4211 30.387 73.3814 32.6747 71.7727 33.4687C71.1375 33.7823 70.3841 33.7755 69.7548 33.4464L69.4743 33.2997C67.8186 32.4279 66.5424 31.0505 65.8383 29.3755C65.1342 27.7006 65.0406 25.819 65.5715 24.0149C65.8475 23.0918 65.7934 22.1272 65.4178 21.2758C65.0422 20.4244 64.367 19.7355 63.5003 19.3198C61.939 18.4217 62.0061 16.1564 63.6175 15.361L63.7469 15.2971C64.2261 15.0606 64.7889 15.0582 65.2715 15.2908L65.7294 15.5114C67.4663 16.3447 68.8196 17.7251 69.5722 19.4314C70.3249 21.1376 70.4334 23.0708 69.8802 24.9209C69.6153 25.821 69.662 26.7599 70.0133 27.5957Z" fill="#354E85"/>
<circle cx="57.5" cy="57.5" r="53.5" stroke="#354E85" stroke-width="8"/>
<path d="M80.452 36.9565L25.8748 70.2297C24.6685 70.9651 23.8696 72.2573 23.6536 73.8222C23.4377 75.387 23.8225 77.0962 24.7233 78.5739L31.5166 89.7167C32.4174 91.1943 33.7605 92.3193 35.2505 92.8442C36.7404 93.369 38.2551 93.2508 39.4613 92.5154L94.0385 59.2422C95.2447 58.5068 96.0437 57.2146 96.2596 55.6497C96.4756 54.0849 96.0908 52.3757 95.19 50.898L88.3967 39.7552C87.4959 38.2776 86.1527 37.1526 84.6628 36.6277C83.1729 36.1029 81.6582 36.2211 80.452 36.9565ZM90.1213 52.817C90.4088 53.2885 90.2596 53.9039 89.788 54.1913L55.1109 75.3324C54.6393 75.6198 54.024 75.4706 53.7365 74.9991L47.9843 65.5639C47.6969 65.0923 47.8461 64.477 48.3176 64.1895L82.9948 43.0485C83.4663 42.761 84.0817 42.9102 84.3691 43.3818L90.1213 52.817Z" fill="#354E85"/>
</svg>
