<svg width="47" height="58" viewBox="0 0 47 58" fill="none" xmlns="http://www.w3.org/2000/svg">
<path d="M8.39338 4.1174C8.36924 5.23923 8.59001 6.35262 9.04196 7.38826C9.49391 8.4239 10.1673 9.35963 11.0204 10.1372C9.44659 10.6344 8.05731 11.5513 7.02111 12.7766C5.98491 14.0019 5.34631 15.483 5.1828 17.0401C4.78776 20.777 5.75331 24.5231 7.92021 27.6608L8.54394 28.5666L8.61994 28.6629L11.1117 31.569C11.6395 32.1849 12.3037 32.6843 13.0582 33.0322C13.8126 33.3801 14.6392 33.5683 15.4803 33.5836C16.3214 33.599 17.1568 33.4411 17.9284 33.121C18.7 32.8009 19.3892 32.3262 19.948 31.7301C20.0133 31.6604 20.0928 31.6038 20.1817 31.5637C20.2707 31.5235 20.3672 31.5007 20.4655 31.4966C20.5638 31.4925 20.6618 31.5072 20.7538 31.5397C20.8458 31.5723 20.9297 31.622 21.0007 31.686C21.6073 32.2334 22.3337 32.6489 23.1293 32.9034C23.9249 33.158 24.7706 33.2456 25.6075 33.1601C26.4444 33.0745 27.2523 32.818 27.9751 32.4083C28.6979 31.9985 29.3181 31.4455 29.7926 30.7876L32.0329 27.682L32.0989 27.5797L32.6465 26.625C34.5449 23.3187 35.196 19.5062 34.4926 15.8157C34.2851 14.7283 33.843 13.6938 33.1938 12.7762C32.5446 11.8585 31.7021 11.0774 30.7185 10.481C29.7348 9.88459 28.6309 9.4857 27.4752 9.30901C26.3194 9.13232 25.1364 9.18158 23.9993 9.45375L20.8488 10.2078L20.8438 10.208C20.8425 8.97614 20.991 7.64323 21.343 6.4945C21.7703 5.1057 22.4076 4.2546 23.1439 3.93003C23.4457 3.79635 23.6795 3.55524 23.7938 3.25974C23.9081 2.96425 23.8936 2.63857 23.7534 2.35436C23.6132 2.07014 23.3588 1.85068 23.0463 1.74423C22.7337 1.63779 22.3886 1.6531 22.0868 1.78678C20.3579 2.55245 19.4273 4.23553 18.9339 5.84504L18.8664 6.07214C18.424 5.33883 17.8638 4.675 17.2057 4.10418C16.3049 3.32174 15.2373 2.72966 14.0737 2.36719C12.91 2.00471 11.6768 1.8801 10.4558 2.00161C9.89848 2.05531 9.38045 2.30009 8.99997 2.68952C8.61948 3.07895 8.40299 3.58594 8.39158 4.11432M13.7961 16.2313C13.2208 16.3643 12.7056 16.7713 12.4037 17.5183C12.0958 18.2798 12.0218 19.3932 12.4456 20.7606C12.5335 21.0599 12.4929 21.3803 12.3326 21.6527C12.1723 21.9251 11.9052 22.1275 11.589 22.2163C11.2728 22.305 10.9329 22.273 10.6427 22.127C10.3526 21.981 10.1355 21.7329 10.0384 21.4362C9.49654 19.6868 9.51599 18.0308 10.0605 16.6829C10.6112 15.3221 11.7092 14.2796 13.2078 13.9326C13.37 13.8893 13.5396 13.8772 13.7065 13.897C13.8734 13.9169 14.0342 13.9682 14.1794 14.0481C14.3245 14.1279 14.4509 14.2346 14.5512 14.3617C14.6515 14.4888 14.7235 14.6339 14.763 14.7881C14.8025 14.9423 14.8087 15.1027 14.7811 15.2595C14.7536 15.4164 14.6929 15.5665 14.6026 15.7011C14.5124 15.8356 14.3945 15.9517 14.2559 16.0425C14.1173 16.1334 13.961 16.1986 13.7961 16.2313Z" fill="#F7EFED"/>
<mask id="mask0_296_221" style="mask-type:luminance" maskUnits="userSpaceOnUse" x="22" y="0" width="24" height="48">
<path d="M27.6115 20.1236C27.907 18.3355 28.5958 16.6437 29.6107 15.2128C30.6256 13.782 31.9321 12.661 33.4031 11.9588C33.4749 11.9246 33.5388 11.8699 33.5884 11.8001C33.6379 11.7303 33.6716 11.6476 33.686 11.5603L35.2071 2.35518L42.4642 3.55433L40.9431 12.7595C40.9139 12.9366 40.9665 13.1143 41.083 13.2268C42.25 14.3649 43.1265 15.8468 43.6272 17.5283C44.1278 19.2097 44.2356 21.0334 43.94 22.8216L40.3783 44.3766C40.2859 44.9359 40.0061 45.4408 39.6005 45.7801C39.1949 46.1194 38.6967 46.2654 38.2155 46.1859L25.5156 44.0874C25.0344 44.0079 24.6097 43.7094 24.3348 43.2577C24.0599 42.8059 23.9574 42.2379 24.0498 41.6785L27.6115 20.1236Z" fill="white" stroke="white" stroke-width="3" stroke-linecap="round" stroke-linejoin="round"/>
<path d="M34.1616 8.68237L41.4187 9.88152" stroke="black" stroke-width="3" stroke-linecap="round"/>
<path d="M43.6882 24.3398L35.5239 22.9907L32.9102 38.8089L41.0744 40.158" stroke="black" stroke-width="3" stroke-linecap="round" stroke-linejoin="round"/>
<path d="M40.7275 42.2674L44.0383 22.231M33.8137 10.7914L34.5107 6.57324M41.0708 11.9906L41.7678 7.77239" stroke="white" stroke-width="3" stroke-linecap="round" stroke-linejoin="round"/>
</mask>
<g mask="url(#mask0_296_221)">
<path d="M17.7612 -4.86133L61.3038 2.33355L52.9397 52.9518L9.39718 45.7569L17.7612 -4.86133Z" fill="#264558"/>
</g>
<mask id="mask1_296_221" style="mask-type:luminance" maskUnits="userSpaceOnUse" x="24" y="2" width="22" height="43">
<path d="M29.2208 19.8951C29.4911 18.2593 30.1212 16.7116 31.0497 15.4027C31.9781 14.0937 33.1734 13.0682 34.519 12.4258C34.5847 12.3945 34.6431 12.3445 34.6885 12.2806C34.7339 12.2167 34.7647 12.1411 34.7779 12.0613L36.1694 3.64022L42.8083 4.73722L41.4168 13.1583C41.39 13.3203 41.4382 13.4829 41.5448 13.5857C42.6124 14.6269 43.4142 15.9826 43.8722 17.5209C44.3303 19.0591 44.4288 20.7274 44.1584 22.3633L40.9001 42.0822C40.8155 42.5939 40.5596 43.0558 40.1885 43.3662C39.8175 43.6766 39.3617 43.8101 38.9215 43.7374L27.3034 41.8176C26.8632 41.7449 26.4747 41.4719 26.2232 41.0586C25.9717 40.6453 25.8779 40.1257 25.9625 39.614L29.2208 19.8951Z" fill="white" stroke="white" stroke-width="2" stroke-linecap="round" stroke-linejoin="round"/>
<path d="M35.2134 9.42871L41.8523 10.5257" stroke="black" stroke-width="2" stroke-linecap="round"/>
<path d="M43.9278 23.7522L36.459 22.5181L34.0679 36.9889L41.5367 38.223" stroke="black" stroke-width="2" stroke-linecap="round" stroke-linejoin="round"/>
<path d="M41.2189 40.1527L44.2477 21.823M34.8941 11.3579L35.5317 7.49902M41.533 12.4549L42.1707 8.59603" stroke="white" stroke-width="2" stroke-linecap="round" stroke-linejoin="round"/>
</mask>
<g mask="url(#mask1_296_221)">
<path d="M20.209 -2.96118L60.0426 3.62084L52.391 49.9274L12.5574 43.3454L20.209 -2.96118Z" fill="#F7EFED"/>
</g>
<path d="M26.277 54.3473L27.5807 52.5714L28.2277 53.0606L29.2347 53.8221L29.2347 53.8221L29.2461 53.8305C29.9433 54.3424 30.7473 54.5468 31.6023 54.4158C32.4573 54.2847 33.1626 53.8481 33.6738 53.1505C33.6744 53.1497 33.675 53.1489 33.6756 53.1481L39.5501 45.1966L39.5501 45.1966L39.5518 45.1942C40.0677 44.4915 40.2664 43.6795 40.1402 42.8168C40.0135 41.9502 39.5833 41.2298 38.8774 40.7115L37.8598 39.9645L37.1946 39.4761L38.4423 37.7766L38.4436 37.775C38.8789 37.1794 39.0553 36.4883 38.9431 35.7564C38.8307 35.0231 38.4535 34.4164 37.8581 33.9792L37.8581 33.9792L37.8513 33.9743L34.2549 31.38C34.2377 31.3673 34.2164 31.3512 34.1917 31.3325C34.0386 31.2166 33.7528 31.0002 33.4811 30.8756C33.3069 30.7957 33.0201 30.6931 32.6781 30.7299C32.2849 30.7722 31.9627 30.9819 31.7466 31.2762C31.6146 31.456 31.5229 31.5806 31.4444 31.6874C31.3167 31.8609 31.2236 31.9875 31.0481 32.2277C31.0479 32.2279 31.0478 32.2281 31.0476 32.2283L28.2893 35.9855L20.3974 30.1917L23.0988 26.5121C23.5306 25.9239 23.7143 25.2401 23.6028 24.5126C23.5999 24.4939 23.5967 24.4703 23.593 24.4428C23.572 24.2885 23.5343 24.0109 23.4452 23.7796C23.3025 23.4092 23.0584 23.1499 22.7652 22.9338L22.7652 22.9338L22.7619 22.9313L19.2004 20.3277C19.2 20.3274 19.1997 20.3272 19.1993 20.3269C18.6136 19.8973 17.9327 19.7115 17.2071 19.8228C16.4799 19.9342 15.8855 20.3175 15.4549 20.904L14.1817 22.6382L13.4794 22.1227L12.2919 21.2508C11.5895 20.7352 10.7782 20.5364 9.91699 20.6684C9.05503 20.8005 8.33962 21.2329 7.82357 21.9358L7.82191 21.9381L1.92192 30.0222L1.92153 30.0228C1.41426 30.7188 1.25291 31.5263 1.421 32.3685C1.5836 33.1831 2.00235 33.8645 2.6711 34.3554L3.85864 35.2273L4.56093 35.7428L3.28775 37.4771C2.85759 38.063 2.67151 38.7443 2.78281 39.4703C2.89409 40.1962 3.27553 40.7905 3.86033 41.2217L3.86118 41.2223L7.41521 43.837L7.41769 43.8388C7.71431 44.0557 8.03666 44.2097 8.43341 44.2333C8.6783 44.2478 8.95432 44.2004 9.10668 44.1743C9.13444 44.1695 9.1581 44.1654 9.17671 44.1626C9.90423 44.0511 10.5016 43.671 10.9334 43.0828L13.6339 39.4044L21.5257 45.1982L18.8384 48.8586C18.4103 49.4418 18.2239 50.1195 18.3319 50.8417C18.3263 50.8496 18.3166 50.8968 18.3023 51.0531C18.2831 51.2621 18.3075 51.5344 18.4756 51.8102C18.6077 52.0268 18.788 52.1747 18.9166 52.2697C18.9175 52.2704 18.9184 52.271 18.9192 52.2717L22.4728 54.9247L22.4728 54.9247L22.4792 54.9295C23.0747 55.3666 23.7665 55.5448 24.4998 55.4323C25.2331 55.3199 25.8398 54.9427 26.277 54.3473Z" fill="#F7EFED" stroke="#264558" stroke-width="2"/>
</svg>
