<svg width="58" height="51" viewBox="0 0 58 51" fill="none" xmlns="http://www.w3.org/2000/svg">
<g clip-path="url(#clip0_66_12)">
<path fill-rule="evenodd" clip-rule="evenodd" d="M35.4284 3.84811L54.0088 22.4284C56.4727 24.8923 57.8569 28.2341 57.8569 31.7186C57.8569 35.2031 56.4727 38.5449 54.0088 41.0088C51.5449 43.4727 48.2031 44.8569 44.7186 44.8569C41.2341 44.8569 37.8923 43.4727 35.4284 41.0088L16.8481 22.4284C14.3842 19.9645 13 16.6228 13 13.1383C13 9.65379 14.3842 6.31202 16.8481 3.84811C19.312 1.38421 22.6538 0 26.1383 0C29.6228 0 32.9645 1.38421 35.4284 3.84811ZM42.5931 19.3745C40.6458 17.4272 38.2137 16.9425 35.2941 17.9147C32.3745 18.887 30.4272 21.8066 29.4549 26.6735L39.44 36.7286L39.4575 36.7462C42.2983 39.5869 46.9025 39.5869 49.7462 36.7462L49.7666 36.7228C51.1229 35.3538 51.8802 33.5023 51.872 31.5752C51.8638 29.6482 51.0907 27.8032 49.7228 26.4458L42.5931 19.3745Z" fill="#F7EFED"/>
<path d="M33.5 33.5C33.5 42.3366 26.3366 49.5 17.5 49.5C8.66344 49.5 1.5 42.3366 1.5 33.5C1.5 24.6634 8.66344 17.5 17.5 17.5C26.3366 17.5 33.5 24.6634 33.5 33.5Z" fill="white" stroke="#264558" stroke-width="3"/>
<path d="M15 27.6667C15 26.286 16.1193 25.1667 17.5 25.1667C18.8807 25.1667 20 26.286 20 27.6667V39.3334C20 40.7141 18.8807 41.8334 17.5 41.8334C16.1193 41.8334 15 40.7141 15 39.3334V27.6667Z" fill="#264558"/>
<path d="M9.1665 33.5C9.1665 32.1193 10.2858 31 11.6665 31H23.3332C24.7139 31 25.8332 32.1193 25.8332 33.5C25.8332 34.8807 24.7139 36 23.3332 36H11.6665C10.2858 36 9.1665 34.8807 9.1665 33.5Z" fill="#264558"/>
</g>
<defs>
<clipPath id="clip0_66_12">
<rect width="58" height="51" fill="white"/>
</clipPath>
</defs>
</svg>
