<svg width="39" height="39" viewBox="0 0 39 39" fill="none" xmlns="http://www.w3.org/2000/svg">
<path fill-rule="evenodd" clip-rule="evenodd" d="M19.3228 10.5571L28.8688 20.1031C30.1347 21.369 30.8459 23.0859 30.8459 24.8761C30.8459 26.6663 30.1347 28.3832 28.8688 29.6491C27.603 30.915 25.8861 31.6262 24.0958 31.6262C22.3056 31.6262 20.5887 30.915 19.3228 29.6491L9.77685 20.1031C8.51097 18.8372 7.7998 17.1203 7.7998 15.3301C7.7998 13.5399 8.51097 11.823 9.77685 10.5571C11.0427 9.29124 12.7596 8.58008 14.5498 8.58008C16.3401 8.58008 18.057 9.29124 19.3228 10.5571ZM23.0038 18.5341C22.0033 17.5336 20.7538 17.2846 19.2538 17.7841C17.7538 18.2836 16.7533 19.7836 16.2538 22.2841L21.3838 27.4501L21.3928 27.4591C22.8523 28.9186 25.2178 28.9186 26.6788 27.4591L26.6893 27.4471C27.3862 26.7438 27.7752 25.7925 27.771 24.8025C27.7668 23.8124 27.3696 22.8645 26.6668 22.1671L23.0038 18.5341Z" fill="#30695D"/>
<path fill-rule="evenodd" clip-rule="evenodd" d="M19.5 36C28.6125 36 36 28.6125 36 19.5C36 10.3875 28.6125 3 19.5 3C10.3875 3 3 10.3875 3 19.5C3 28.6125 10.3875 36 19.5 36ZM19.5 39C30.27 39 39 30.27 39 19.5C39 8.73 30.27 0 19.5 0C8.73 0 0 8.73 0 19.5C0 30.27 8.73 39 19.5 39Z" fill="#30695D"/>
</svg>
