<svg width="54" height="51" viewBox="0 0 54 51" fill="none" xmlns="http://www.w3.org/2000/svg">
<path d="M30.4031 9.62587C31.1813 8.85137 32.4384 8.84908 33.2195 9.62075L36.2849 12.6493C37.0753 13.4302 37.0776 14.7058 36.29 15.4896L31.7714 19.9865C31.1424 20.6125 31.1424 21.6306 31.7714 22.2566C32.3961 22.8784 33.4058 22.8784 34.0306 22.2566L38.579 17.7301C39.3593 16.9535 40.6204 16.9536 41.4006 17.7301L42.3561 18.6809C43.1417 19.4627 43.1417 20.7343 42.3561 21.5161L37.8322 26.0182C37.2032 26.6442 37.2032 27.6623 37.8322 28.2883C38.457 28.91 39.4667 28.91 40.0914 28.2883L44.6399 23.7617C45.4202 22.9852 46.6812 22.9852 47.4615 23.7617L50.334 26.6204C51.0146 27.2765 51.4574 28.1387 51.5931 29.0721C51.7287 30.0054 51.5495 30.9571 51.0836 31.7783L49.632 34.5085C49.2214 35.2808 49.3602 36.2302 49.9747 36.8525L52.3611 39.2697C53.1349 40.0535 53.1294 41.3155 52.3487 42.0924L52.1393 42.3007C51.3639 43.0724 50.1124 43.0779 49.3303 42.3131L46.8779 39.9152C46.2572 39.3083 45.3159 39.1711 44.5478 39.5755L41.7888 41.0283C41.136 41.3965 40.3975 41.5876 39.6472 41.5824C39.082 41.5829 38.5223 41.472 38.0003 41.2561C37.4784 41.0403 37.0045 40.7238 36.606 40.3249L19.5415 23.2638C18.759 22.4815 18.7605 21.2124 19.5448 20.4319L30.4031 9.62587ZM15.0931 15.8785C15.1 15.8785 15.1066 15.8757 15.1115 15.8709L17.5158 13.4647C18.2997 12.6803 18.2957 11.4079 17.5069 10.6284L17.307 10.431C16.526 9.65914 15.2688 9.66137 14.4905 10.4359L14.2874 10.6381C13.5071 11.4146 12.246 11.4146 11.4658 10.6381L11.2813 10.4545C10.4957 9.67267 10.4957 8.40107 11.2813 7.61925L17.5266 1.404C18.3069 0.627499 19.568 0.627501 20.3482 1.404L20.5377 1.59257C21.3213 2.37244 21.3236 3.64018 20.5427 4.42282L20.3519 4.61406C19.571 5.3967 19.5732 6.66443 20.3569 7.44431L20.5503 7.63677C21.329 8.41175 22.587 8.4135 23.3679 7.6407L25.8121 5.22178L28.1228 2.90902C28.9044 2.12674 30.1724 2.12717 30.9534 2.90996L31.1439 3.10081C31.9247 3.88345 31.9225 5.15118 31.1389 5.93106L30.36 6.7062C30.3551 6.71101 30.3524 6.71755 30.3524 6.72437C30.3524 6.73119 30.3497 6.73773 30.3449 6.74255L16.632 20.3894C16.6272 20.3942 16.6206 20.3969 16.6137 20.3969C16.6069 20.3969 16.6003 20.3996 16.5954 20.4045L15.803 21.1931C15.0246 21.9677 13.7674 21.9699 12.9864 21.1981L12.7905 21.0046C12.0002 20.2236 11.9979 18.9481 12.7855 18.1644L15.0749 15.886C15.0797 15.8812 15.0863 15.8785 15.0931 15.8785Z" fill="#F7EFED"/>
<path d="M33.5 33.5C33.5 42.3366 26.3366 49.5 17.5 49.5C8.66344 49.5 1.5 42.3366 1.5 33.5C1.5 24.6634 8.66344 17.5 17.5 17.5C26.3366 17.5 33.5 24.6634 33.5 33.5Z" fill="white" stroke="#264558" stroke-width="3"/>
<path d="M15 27.6667C15 26.286 16.1193 25.1667 17.5 25.1667C18.8807 25.1667 20 26.286 20 27.6667V39.3334C20 40.7141 18.8807 41.8334 17.5 41.8334C16.1193 41.8334 15 40.7141 15 39.3334V27.6667Z" fill="#264558"/>
<path d="M9.1665 33.5C9.1665 32.1193 10.2858 31 11.6665 31H23.3332C24.7139 31 25.8332 32.1193 25.8332 33.5C25.8332 34.8807 24.7139 36 23.3332 36H11.6665C10.2858 36 9.1665 34.8807 9.1665 33.5Z" fill="#264558"/>
</svg>
