<svg width="39" height="39" viewBox="0 0 39 39" fill="none" xmlns="http://www.w3.org/2000/svg">
<circle cx="19.5" cy="19.5" r="18" stroke="#30695D" stroke-width="3"/>
<path d="M20.2046 13.9741C19.8151 13.5846 19.1839 13.5835 18.793 13.9716L17.5214 15.234C17.1284 15.6241 17.1272 16.2593 17.5188 16.6508L19.5196 18.6516C19.805 18.937 19.805 19.3997 19.5196 19.6851C19.2342 19.9705 18.7715 19.9705 18.4861 19.6851L16.4827 17.6817C16.0922 17.2912 15.459 17.2912 15.0685 17.6817L14.757 17.9932C14.3664 18.3838 14.3664 19.0169 14.757 19.4075L16.7603 21.4109C17.0457 21.6962 17.0457 22.159 16.7603 22.4444C16.475 22.7297 16.0122 22.7297 15.7268 22.4444L13.7235 20.441C13.3329 20.0504 12.6998 20.0504 12.3092 20.441L11.0663 21.6839C10.7565 21.984 10.5549 22.3784 10.4931 22.8054C10.4314 23.2323 10.513 23.6677 10.7251 24.0434L11.3579 25.2394C11.5617 25.6245 11.4927 26.0972 11.1874 26.408L10.1876 27.4254C9.81041 27.8094 9.81312 28.4256 10.1937 28.8062C10.5743 29.1868 11.1906 29.1895 11.5745 28.8123L12.592 27.8126C12.9027 27.5073 13.3754 27.4383 13.7605 27.642L14.9566 28.2749C15.2538 28.4433 15.59 28.5307 15.9316 28.5284C16.1889 28.5286 16.4437 28.4778 16.6813 28.3791C16.919 28.2804 17.1347 28.1356 17.3161 27.9531L25.0265 20.207C25.4155 19.8162 25.4148 19.1843 25.0249 18.7944L20.2046 13.9741ZM27.11 16.7699C27.1069 16.7699 27.1039 16.7686 27.1016 16.7664L26.0492 15.7081C25.6686 15.3253 25.6716 14.7053 26.0547 14.3249C26.4354 13.9469 27.0518 13.9475 27.4311 14.3269C27.8107 14.7065 28.4268 14.7071 28.8065 14.3275C29.1861 13.9479 29.1861 13.3324 28.8065 12.9527L26.0484 10.1947C25.6681 9.8144 25.0516 9.8144 24.6713 10.1947C24.2919 10.574 24.294 11.1919 24.672 11.5726C25.0505 11.9538 25.0526 12.5726 24.6727 12.9525C24.2926 13.3325 23.6767 13.3334 23.2955 12.9544L22.2301 11.8949L21.2248 10.8838C20.8438 10.5006 20.2236 10.5008 19.8428 10.8843C19.4647 11.2651 19.4658 11.88 19.8452 12.2595L20.1596 12.5739C20.1619 12.5761 20.1631 12.5791 20.1631 12.5822C20.1631 12.5854 20.1643 12.5883 20.1665 12.5906L26.4094 18.8334C26.4116 18.8356 26.4146 18.8369 26.4177 18.8369C26.4208 18.8369 26.4238 18.8381 26.426 18.8403L26.7395 19.1537C27.1195 19.5337 27.7353 19.5348 28.1166 19.1562C28.4999 18.7756 28.501 18.156 28.1191 17.7741L27.1183 16.7733C27.1161 16.7711 27.1131 16.7699 27.11 16.7699Z" fill="#30695D"/>
</svg>
