<svg width="48" height="42" viewBox="0 0 48 42" fill="none" xmlns="http://www.w3.org/2000/svg">
<path d="M2.21901 22.0345C3.2824 23.4369 5.16296 23.8103 6.64747 22.9948V36.971C6.64747 38.8818 8.17757 40.5 10.1291 40.5H37.8722C39.8238 40.5 41.3539 38.8818 41.3539 36.971V22.9996C42.8537 23.835 44.7571 23.4259 45.7939 22.0191C46.0688 21.6524 46.2689 21.2357 46.3845 20.7932C46.501 20.3474 46.5297 19.8829 46.4691 19.4262C46.4086 18.9696 46.2599 18.5283 46.0302 18.128C45.8018 17.7299 45.4975 17.3796 45.133 17.0985C45.131 17.097 45.129 17.0954 45.127 17.0939L26.1135 2.22915L26.1136 2.22911L26.1033 2.22119C24.8599 1.26639 23.1114 1.24949 21.8654 2.23117C21.8643 2.23204 21.8632 2.23291 21.8621 2.23378L2.84415 17.1019L2.83409 17.1098L2.82417 17.1178C1.36883 18.2961 1.03137 20.489 2.21901 22.0345Z" fill="#F7EFED" stroke="#F7EFED" stroke-width="3"/>
<circle cx="16.0898" cy="24.8" r="2" fill="#7C7C7C"/>
<circle cx="24" cy="24.8" r="2" fill="#7C7C7C"/>
<circle cx="32" cy="24.8" r="2" fill="#7C7C7C"/>
</svg>
