<svg width="50" height="44" viewBox="0 0 50 44" fill="none" xmlns="http://www.w3.org/2000/svg">
<path d="M2.82152 23.3378C3.86529 24.7133 5.60182 25.2228 7.14747 24.747V37.971C7.14747 40.1467 8.89036 42 11.1291 42H38.8722C41.111 42 42.8539 40.1467 42.8539 37.971V24.7552C44.4187 25.2409 46.1749 24.7003 47.1951 23.3175C47.5085 22.899 47.7366 22.4238 47.8683 21.9196C48.0012 21.411 48.0338 20.8813 47.9648 20.3605C47.8958 19.8397 47.7261 19.3362 47.4639 18.8792C47.2034 18.4252 46.8562 18.0251 46.4399 17.7038L27.4215 2.83525L27.4147 2.82991L27.4078 2.82463C25.9878 1.7342 23.9868 1.71165 22.5567 2.83784C22.5552 2.83903 22.5537 2.84022 22.5522 2.84142L3.5362 17.708L3.52279 17.7185L3.50955 17.7292C1.85315 19.0702 1.46266 21.5681 2.82152 23.3378Z" stroke="#F7EFED" stroke-width="4"/>
<circle cx="17.0898" cy="25.8" r="2" fill="#F7EFED"/>
<circle cx="25" cy="25.8" r="2" fill="#F7EFED"/>
<circle cx="33" cy="25.8" r="2" fill="#F7EFED"/>
</svg>
