<svg width="113" height="113" viewBox="0 0 113 113" fill="none" xmlns="http://www.w3.org/2000/svg">
<path d="M5 82.25V99.4167C5 101.693 5.90431 103.876 7.514 105.486C9.12369 107.096 11.3069 108 13.5833 108H30.75M82.25 108H99.4167C101.693 108 103.876 107.096 105.486 105.486C107.096 103.876 108 101.693 108 99.4167V82.25M108 30.75V13.5833C108 11.3069 107.096 9.12369 105.486 7.514C103.876 5.90431 101.693 5 99.4167 5H82.25M5 30.75V13.5833C5 11.3069 5.90431 9.12369 7.514 7.514C9.12369 5.90431 11.3069 5 13.5833 5H30.75" stroke="#435989" stroke-width="10" stroke-linecap="round" stroke-linejoin="round"/>
<rect x="47.9165" y="19.3057" width="17.1667" height="48.6389" rx="6" fill="#435989"/>
<rect x="47.9165" y="73.6665" width="17.1667" height="17.1667" rx="4" fill="#435989"/>
</svg>
