<svg width="40" height="40" viewBox="0 0 40 40" fill="none" xmlns="http://www.w3.org/2000/svg">
<path d="M7.36571 17.4571C7.21757 17.8099 7.14179 18.1888 7.14286 18.5714C7.15144 18.9623 7.22681 19.3488 7.36571 19.7143C7.49736 20.0512 7.70344 20.354 7.96857 20.6C8.23905 20.8571 8.54381 21.059 8.88286 21.2057C9.2365 21.3542 9.61644 21.43 10 21.4286C10.3852 21.4498 10.7695 21.3731 11.1171 21.2057C11.4568 21.0521 11.7664 20.8392 12.0314 20.5771C12.2969 20.3155 12.5068 20.003 12.6487 19.6584C12.7905 19.3138 12.8614 18.9441 12.8571 18.5714C12.8582 18.1888 12.7824 17.8099 12.6343 17.4571C12.4946 17.1105 12.2811 16.7985 12.0086 16.5429C11.7414 16.2899 11.432 16.0859 11.0943 15.94C10.7479 15.7935 10.3761 15.7168 10 15.7143C9.61485 15.7018 9.23216 15.7801 8.88286 15.9429C8.20032 16.2309 7.65635 16.7757 7.36571 17.4571ZM7.36571 28.8829C7.21757 29.2356 7.14179 29.6145 7.14286 29.9971C7.15176 30.3871 7.22713 30.7726 7.36571 31.1371C7.4966 31.4761 7.70273 31.7809 7.96857 32.0286C8.23905 32.2819 8.54381 32.4819 8.88286 32.6286C9.2363 32.7781 9.61624 32.8548 10 32.8543C10.3852 32.8755 10.7695 32.7988 11.1171 32.6314C11.46 32.479 11.7648 32.2714 12.0314 32.0086C12.2886 31.7476 12.4895 31.4495 12.6343 31.1143C12.784 30.7614 12.8611 30.3819 12.8611 29.9986C12.8611 29.6152 12.784 29.2358 12.6343 28.8829C12.495 28.5352 12.2814 28.2222 12.0086 27.9657C11.7412 27.7138 11.4318 27.5107 11.0943 27.3657C10.7507 27.2102 10.3771 27.1322 10 27.1371C9.61466 27.1225 9.23147 27.2009 8.88286 27.3657C8.19925 27.6551 7.65513 28.1993 7.36571 28.8829ZM18.7114 20C18.3024 20.0056 17.9067 19.8543 17.6057 19.5771V19.5657C17.4619 19.4418 17.3465 19.2883 17.2674 19.1157C17.1883 18.9432 17.1473 18.7556 17.1473 18.5657C17.1473 18.3759 17.1883 18.1883 17.2674 18.0157C17.3465 17.8431 17.4619 17.6896 17.6057 17.5657C17.9074 17.2879 18.3042 17.1365 18.7143 17.1429H31.2857C31.6964 17.1404 32.0922 17.2959 32.3914 17.5771C32.5348 17.7013 32.6498 17.8549 32.7287 18.0274C32.8075 18.2 32.8483 18.3874 32.8483 18.5771C32.8483 18.7668 32.8075 18.9543 32.7287 19.1269C32.6498 19.2994 32.5348 19.453 32.3914 19.5771C32.0905 19.8543 31.6948 20.0056 31.2857 20H18.7114ZM17.6057 31.0057C17.9074 31.2835 18.3042 31.4349 18.7143 31.4286H31.2857C31.584 31.4325 31.8774 31.353 32.1328 31.199C32.3883 31.045 32.5956 30.8227 32.7314 30.5571C32.8518 30.2969 32.8837 30.0044 32.8223 29.7243C32.7609 29.4442 32.6096 29.1918 32.3914 29.0057C32.0922 28.7244 31.6964 28.5689 31.2857 28.5714H18.7143C18.4162 28.5683 18.1232 28.6485 17.8683 28.803C17.6133 28.9574 17.4066 29.18 17.2714 29.4457C17.1515 29.7054 17.1195 29.9971 17.1803 30.2765C17.2412 30.556 17.3915 30.808 17.6086 30.9943L17.6057 31.0057ZM8.57143 0C6.29814 0 4.11797 0.903059 2.51051 2.51051C0.903059 4.11797 0 6.29814 0 8.57143V31.4286C0 33.7019 0.903059 35.882 2.51051 37.4895C4.11797 39.0969 6.29814 40 8.57143 40H31.4286C33.7019 40 35.882 39.0969 37.4895 37.4895C39.0969 35.882 40 33.7019 40 31.4286V8.57143C40 6.29814 39.0969 4.11797 37.4895 2.51051C35.882 0.903059 33.7019 0 31.4286 0H8.57143ZM2.85714 31.4286V11.4286H37.1429V31.4286C37.1429 32.9441 36.5408 34.3975 35.4692 35.4692C34.3975 36.5408 32.9441 37.1429 31.4286 37.1429H8.57143C7.05591 37.1429 5.60245 36.5408 4.53082 35.4692C3.45918 34.3975 2.85714 32.9441 2.85714 31.4286Z" fill="#F7EFED"/>
</svg>
