<svg width="42" height="42" viewBox="0 0 42 42" fill="none" xmlns="http://www.w3.org/2000/svg">
<rect x="2" y="2" width="38" height="38" rx="7" fill="#F7EFED" stroke="#F7EFED" stroke-width="3"/>
<path d="M2 11L40 11" stroke="#264558" stroke-width="3" stroke-linecap="square"/>
<path d="M8.00001 18.8584C7.99894 18.4758 8.07472 18.0969 8.22287 17.7441C8.51351 17.0627 9.05747 16.5179 9.74001 16.2299C10.0893 16.0671 10.472 15.9888 10.8572 16.0013C11.2332 16.0038 11.6051 16.0805 11.9514 16.227C12.2891 16.3729 12.5986 16.5769 12.8657 16.8299C13.1383 17.0855 13.3518 17.3975 13.4914 17.7441C13.6396 18.0969 13.7154 18.4758 13.7143 18.8584C13.7186 19.2311 13.6477 19.6008 13.5058 19.9454C13.3639 20.29 13.154 20.6025 12.8886 20.8641C12.6235 21.1262 12.3139 21.3391 11.9743 21.4927C11.6267 21.6601 11.2424 21.7368 10.8572 21.7156C10.4736 21.717 10.0937 21.6412 9.74001 21.4927C9.40096 21.346 9.0962 21.1441 8.82573 20.887C8.5606 20.641 8.35451 20.3382 8.22287 20.0013C8.08396 19.6358 8.00859 19.2493 8.00001 18.8584Z" fill="#264558"/>
<path d="M8.00001 30.2841C7.99894 29.9015 8.07472 29.5226 8.22287 29.1699C8.51229 28.4863 9.05641 27.9421 9.74001 27.6527C10.0886 27.4879 10.4718 27.4095 10.8572 27.4241C11.2343 27.4192 11.6079 27.4972 11.9514 27.6527C12.2889 27.7977 12.5984 28.0008 12.8657 28.2527C13.1386 28.5092 13.3521 28.8222 13.4914 29.1699C13.6411 29.5228 13.7183 29.9022 13.7183 30.2856C13.7183 30.6689 13.6411 31.0484 13.4914 31.4013C13.3467 31.7365 13.1457 32.0346 12.8886 32.2956C12.6219 32.5584 12.3172 32.766 11.9743 32.9184C11.6267 33.0858 11.2424 33.1625 10.8572 33.1413C10.4734 33.1418 10.0935 33.0651 9.74001 32.9156C9.40096 32.7689 9.0962 32.5689 8.82573 32.3156C8.55989 32.0679 8.35375 31.7631 8.22287 31.4241C8.08428 31.0596 8.00892 30.6741 8.00001 30.2841Z" fill="#264558"/>
<path d="M18.4629 19.8641C18.7638 20.1413 19.1595 20.2926 19.5686 20.287H32.1429C32.5519 20.2926 32.9476 20.1413 33.2486 19.8641C33.392 19.74 33.507 19.5864 33.5858 19.4139C33.6646 19.2413 33.7054 19.0538 33.7054 18.8641C33.7054 18.6744 33.6646 18.487 33.5858 18.3144C33.507 18.1419 33.392 17.9883 33.2486 17.8641C32.9494 17.5829 32.5535 17.4274 32.1429 17.4299H19.5714C19.1614 17.4235 18.7645 17.5749 18.4629 17.8527C18.319 17.9766 18.2037 18.1301 18.1245 18.3027C18.0454 18.4753 18.0045 18.6629 18.0045 18.8527C18.0045 19.0426 18.0454 19.2302 18.1245 19.4027C18.2037 19.5753 18.319 19.7288 18.4629 19.8527V19.8641Z" fill="#264558"/>
<path d="M19.5714 31.7156C19.1614 31.7219 18.7645 31.5705 18.4629 31.2927L18.4657 31.2813C18.2487 31.095 18.0983 30.843 18.0375 30.5635C17.9766 30.2841 18.0086 29.9924 18.1286 29.7327C18.2638 29.467 18.4705 29.2444 18.7254 29.09C18.9804 28.9355 19.2734 28.8553 19.5714 28.8584H32.1429C32.5535 28.8559 32.9494 29.0114 33.2486 29.2927C33.4667 29.4788 33.618 29.7312 33.6794 30.0113C33.7408 30.2914 33.7089 30.5839 33.5886 30.8441C33.4528 31.1097 33.2455 31.332 32.99 31.486C32.7345 31.64 32.4411 31.7195 32.1429 31.7156H19.5714Z" fill="#264558"/>
</svg>
