<svg width="60" height="60" viewBox="0 0 60 60" fill="none" xmlns="http://www.w3.org/2000/svg">
<circle cx="30" cy="30" r="30" fill="#477489"/>
<path d="M30 32.0557C27.2676 32.0557 23.2093 32.7418 19.825 33.987C18.1331 34.6095 16.5774 35.3832 15.4352 36.3046C14.2986 37.2215 13.5 38.3458 13.5 39.6668V44.0001C13.5 44.8285 14.1716 45.5001 15 45.5001H45C45.8284 45.5001 46.5 44.8285 46.5 44.0001V39.6668C46.5 38.3458 45.7015 37.2216 44.5649 36.3046C43.4228 35.3832 41.8672 34.6095 40.1753 33.987C36.7912 32.7418 32.7329 32.0557 30 32.0557Z" fill="#F7EFED" stroke="#F7EFED"/>
<path d="M30.0005 31.2777C35.1859 31.2777 39.3894 27.0743 39.3894 21.8888C39.3894 16.7034 35.1859 12.5 30.0005 12.5C24.815 12.5 20.6116 16.7034 20.6116 21.8888C20.6116 27.0743 24.815 31.2777 30.0005 31.2777Z" fill="#F7EFED" stroke="#F7EFED"/>
<path d="M40.1282 27.3443C39.4096 29.1565 38.0103 30.7278 36.1371 31.8259C34.2639 32.9239 32.0164 33.4904 29.7269 33.4416C27.4374 33.3927 25.2276 32.731 23.4243 31.5545C21.6211 30.3779 20.3201 28.749 19.7139 26.9085L20.2221 26.7778C20.7252 28.3052 22.7256 29.8014 24.2221 30.7778C25.7186 31.7543 28.0999 32.0706 29.9999 32.1112C31.8999 32.1517 33.7787 32.1336 35.3332 31.2223C36.8878 30.311 38.7369 28.8483 39.3332 27.3443L40.1282 27.3443Z" fill="#477489" stroke="#477489"/>
</svg>
