<svg width="42" height="42" viewBox="0 0 42 42" fill="none" xmlns="http://www.w3.org/2000/svg">
<path d="M21 23.0278C17.9441 23.0278 13.49 23.7855 9.76826 25.1548C7.90803 25.8392 6.11797 26.7168 4.75967 27.8125C3.421 28.8924 2.25 30.3994 2.25 32.3333V37C2.25 38.5188 3.48122 39.75 5 39.75H37C38.5188 39.75 39.75 38.5188 39.75 37V32.3333C39.75 30.3994 38.5791 28.8925 37.2405 27.8125C35.8823 26.7168 34.0923 25.8392 32.2321 25.1548C28.5105 23.7855 24.0563 23.0278 21 23.0278Z" stroke="#F7EFED" stroke-width="3.5"/>
<path d="M21.0006 24.6388C27.1833 24.6388 32.195 19.627 32.195 13.4444C32.195 7.26175 27.1833 2.25 21.0006 2.25C14.8179 2.25 9.80615 7.26175 9.80615 13.4444C9.80615 19.627 14.8179 24.6388 21.0006 24.6388Z" fill="#264558" stroke="#F7EFED" stroke-width="3.5"/>
</svg>
