<svg width="113" height="113" viewBox="0 0 113 113" fill="none" xmlns="http://www.w3.org/2000/svg">
<path d="M5 82.25V99.4167C5 101.693 5.90431 103.876 7.514 105.486C9.12369 107.096 11.3069 108 13.5833 108H30.75M82.25 108H99.4167C101.693 108 103.876 107.096 105.486 105.486C107.096 103.876 108 101.693 108 99.4167V82.25M108 30.75V13.5833C108 11.3069 107.096 9.12369 105.486 7.514C103.876 5.90431 101.693 5 99.4167 5H82.25M5 30.75V13.5833C5 11.3069 5.90431 9.12369 7.514 7.514C9.12369 5.90431 11.3069 5 13.5833 5H30.75" stroke="#435989" stroke-width="10" stroke-linecap="round" stroke-linejoin="round"/>
<path d="M69.6 36.0558L69.5962 36.0564C67.8269 36.3476 65.9062 37.4644 64.097 39.0252C62.3501 40.5323 61.1109 42.1023 60.7059 42.6436C58.6011 45.4571 54.3832 45.4556 52.2799 42.6422C51.8755 42.1012 50.6376 40.5319 48.8916 39.0248C47.084 37.4645 45.1629 36.3462 43.3905 36.053L69.6 36.0558ZM69.6 36.0558C76.594 34.8992 80.7867 37.1945 83.1119 40.1209C85.632 43.2927 86.4313 47.7866 85.3885 51.5908L85.3883 51.5915M69.6 36.0558L85.3883 51.5915M85.3883 51.5915C83.4818 58.55 77.3402 65.7082 70.3821 71.7848M85.3883 51.5915L70.3821 71.7848M70.3821 71.7848C64.9719 76.5096 59.5496 80.1714 56.4906 82.1129M70.3821 71.7848L56.4906 82.1129M56.4906 82.1129C53.4321 80.1714 48.0113 76.5097 42.6028 71.7851C35.6487 65.7103 29.5106 58.5547 27.6034 51.5982C26.572 47.7869 27.3752 43.29 29.8924 40.1186C32.2147 37.1926 36.3991 34.8979 43.3901 36.053L56.4906 82.1129Z" stroke="#435989" stroke-width="10"/>
</svg>
