<svg width="113" height="113" viewBox="0 0 113 113" fill="none" xmlns="http://www.w3.org/2000/svg">
<path d="M5 82.25V99.4167C5 101.693 5.90431 103.876 7.514 105.486C9.12369 107.096 11.3069 108 13.5833 108H30.75M82.25 108H99.4167C101.693 108 103.876 107.096 105.486 105.486C107.096 103.876 108 101.693 108 99.4167V82.25M108 30.75V13.5833C108 11.3069 107.096 9.12369 105.486 7.514C103.876 5.90431 101.693 5 99.4167 5H82.25M5 30.75V13.5833C5 11.3069 5.90431 9.12369 7.514 7.514C9.12369 5.90431 11.3069 5 13.5833 5H30.75" stroke="#435989" stroke-width="10" stroke-linecap="round" stroke-linejoin="round"/>
<path d="M30.1372 37.6172L30.135 37.6196C27.4857 40.525 26 44.6788 26 49.6304C26 58.1107 30.2892 65.0774 36.2836 70.825C38.3661 72.8179 41.839 75.263 45.5938 77.6362C49.2859 79.9698 53.0149 82.0881 55.4483 83.4304C55.9703 83.7184 56.5858 83.7183 57.107 83.4309C59.5402 82.0894 63.2687 79.9716 66.9601 77.6357C70.7158 75.259 74.1875 72.8086 76.2676 70.8071L76.2685 70.8062C82.2715 65.0332 86.57 58.0379 86.57 49.6304C86.57 44.6649 85.0777 40.5117 82.4246 37.6049C79.771 34.7056 75.9229 33 71.0961 33C69.6285 33 67.7039 33.728 65.4663 35.3748C63.2878 36.9782 61.1857 39.181 59.4551 41.429L30.1372 37.6172ZM30.1372 37.6172C32.7798 34.7145 36.6333 33 41.4739 33C42.9097 33 44.8215 33.7218 47.0659 35.3743C49.2476 36.9807 51.3612 39.1879 53.108 41.4408L53.109 41.442M30.1372 37.6172L53.109 41.442M53.109 41.442C54.7163 43.5134 57.8512 43.5125 59.4545 41.4298L53.109 41.442ZM53.1152 36.5498C53.1155 36.5495 53.1157 36.5492 53.1159 36.5489L53.1152 36.5498Z" fill="#435989" stroke="#435989" stroke-width="8"/>
</svg>
