<svg width="20" height="20" viewBox="0 0 20 20" fill="none" xmlns="http://www.w3.org/2000/svg">
<path d="M10 11.5C8.43561 11.5 6.12728 11.8911 4.20104 12.5998C3.2381 12.9541 2.33841 13.3993 1.66995 13.9385C1.00709 14.4733 0.5 15.1617 0.5 16V18C0.5 18.8284 1.17157 19.5 2 19.5H18C18.8284 19.5 19.5 18.8284 19.5 18V16C19.5 15.1618 18.993 14.4733 18.3301 13.9385C17.6617 13.3993 16.7621 12.9541 15.7992 12.5998C13.873 11.8911 11.5646 11.5 10 11.5Z" fill="#102538" fill-opacity="0.8" stroke="#E5DFDE"/>
<path d="M10 11.4999C13.0376 11.4999 15.5 9.03761 15.5 5.99997C15.5 2.96234 13.0376 0.5 10 0.5C6.96236 0.5 4.5 2.96234 4.5 5.99997C4.5 9.03761 6.96236 11.4999 10 11.4999Z" fill="#102538" fill-opacity="0.8" stroke="#E5DFDE"/>
</svg>
