<svg width="52" height="45" viewBox="0 0 52 45" fill="none" xmlns="http://www.w3.org/2000/svg">
<path d="M21.731 17.0182L21.7354 17.0226L26.5034 21.7516C27.136 22.3793 27.4935 23.2325 27.4973 24.1237C27.5011 25.0149 27.1509 25.8712 26.5237 26.5043L26.491 26.5373L26.4828 26.5466C25.1641 27.8294 23.0584 27.8179 21.7553 26.515C21.7553 26.515 21.7553 26.515 21.7553 26.5149L21.7472 26.5069L21.7436 26.5033L15.6487 20.3656C16.2851 17.8489 17.3074 16.763 18.3841 16.4044C19.1721 16.142 19.798 16.1076 20.3009 16.2081C20.7925 16.3064 21.2655 16.5527 21.731 17.0182ZM31.4871 16.9393L19.0607 4.51293C17.1315 2.58378 14.515 1.5 11.7868 1.5C9.05857 1.5 6.44208 2.58378 4.51293 4.51293C2.58378 6.44208 1.5 9.05857 1.5 11.7868C1.5 14.515 2.58378 17.1315 4.51293 19.0607L16.9393 31.4871C18.8685 33.4162 21.485 34.5 24.2132 34.5C26.9414 34.5 29.5579 33.4162 31.4871 31.4871C33.4162 29.5579 34.5 26.9414 34.5 24.2132C34.5 21.485 33.4162 18.8685 31.4871 16.9393Z" fill="#F7EFED" stroke="#264558" stroke-width="3"/>
<path d="M21.8663 27.0356L20.8517 26.0211C21.5083 25.3645 22.4393 25.1495 23.2755 25.376C23.049 24.5397 23.264 23.6088 23.9206 22.9522L25.2693 21.6035C25.9264 20.9464 26.8583 20.7316 27.6951 20.959C27.4687 20.1203 27.6863 19.1869 28.3472 18.5308L31.2361 15.6628C31.4956 15.4053 31.7973 15.2163 32.1189 15.0958L32.0976 15.0745L33.1217 14.0505L32.0976 15.0745C31.1237 14.1007 31.1209 12.5226 32.0914 11.5453L33.1388 12.5853L32.0914 11.5453L32.8811 10.7499C33.8584 9.76574 35.45 9.76521 36.4279 10.7487L38.4284 12.7608L38.4344 12.7668L40.1775 14.5002L40.2639 14.4138L39.8182 13.965C38.8478 12.9877 38.8506 11.4096 39.8244 10.4357L40.8851 11.4964L39.8244 10.4357L40.6137 9.64645C41.59 8.67013 43.1729 8.67014 44.1492 9.64645L49.3536 14.8508C50.3299 15.8271 50.3299 17.41 49.3536 18.3863L48.5668 19.1731C47.5905 20.1494 46.0076 20.1494 45.0313 19.1731L44.5943 18.7361L44.5036 18.8262L46.1233 20.455C46.1701 20.4918 46.2149 20.5316 46.2574 20.5741L48.2584 22.5751C49.2371 23.5538 49.2343 25.1416 48.2521 26.1169L47.4547 26.9086C46.4774 27.8791 44.8993 27.8763 43.9255 26.9024L43.9032 26.8802C43.7824 27.2027 43.5927 27.5054 43.3339 27.7653L30.5672 40.5912C30.5671 40.5913 30.5669 40.5915 30.5668 40.5916C30.5667 40.5917 30.5666 40.5918 30.5665 40.5919C30.1367 41.0241 29.6256 41.367 29.0627 41.6009C28.5012 41.8342 27.8992 41.9544 27.2912 41.9546C27.2894 41.9546 27.2875 41.9546 27.2856 41.9546L27.2868 40.4546C26.7399 40.4584 26.2016 40.3185 25.7259 40.0488L21.8663 27.0356ZM21.8663 27.0356L20.8517 26.0211L18.4446 28.4283C17.7154 29.1385 17.2411 30.0698 17.0953 31.0774C16.95 32.082 17.1395 33.1062 17.634 33.9921L18.6731 35.9559L16.6247 38.0407C15.6631 39.0194 15.67 40.5904 16.6402 41.5606L17.4394 42.3598C18.4096 43.33 19.9806 43.3369 20.9593 42.3753L23.0441 40.3269L25.0071 41.3655L21.8663 27.0356ZM46.2339 20.5662L46.2337 20.566L46.2339 20.5662ZM40.5311 14.8518L40.5305 14.8512C40.5307 14.8514 40.5309 14.8516 40.5311 14.8518L40.1785 15.2063L40.5311 14.8518Z" fill="#F7EFED" stroke="#264558" stroke-width="3"/>
</svg>
